<?xml version="1.0" encoding="utf-8"?>
<!-- Generator: Adobe Illustrator 24.1.0, SVG Export Plug-In . SVG Version: 6.00 Build 0)  -->
<svg version="1.1" id="Layer_1" xmlns="http://www.w3.org/2000/svg" xmlns:xlink="http://www.w3.org/1999/xlink" x="0px" y="0px"
	 viewBox="0 0 334.67 357.33" style="enable-background:new 0 0 334.67 357.33;" xml:space="preserve">
<style type="text/css">
	.st0{fill:#FFFFFF;}
</style>
<g>
	<path class="st0" d="M210.2,237.12c4.15,10.16,7.51,18.38,11.16,27.33c25.27-15.17,37.46-38.72,44.37-66.16
		c13.81,0,27.37,0,42.29,0c-6.54,47.89-31.68,82.4-72.25,106.83c3.32,10.38,6.59,20.58,10.62,33.18
		c-24.17-11.81-46.34-22.65-69.19-33.82C188.13,282.16,198.72,260.55,210.2,237.12z"/>
	<path class="st0" d="M164.39,62.66c-10.96,22.33-21.56,43.94-32.99,67.23c-4.25-10.15-7.67-18.3-11.42-27.25
		c-26.54,14.76-37.65,38.52-43.96,66.1c-13.7,0-27.33,0-42.1,0c5.82-48.22,31.63-81.92,71.85-106.84
		c-3.24-10.11-6.55-20.46-10.6-33.12C119.22,40.55,141.37,51.39,164.39,62.66z"/>
	<path class="st0" d="M24.41,264.91c13.23,0,25.43,0,38.09,0c3.59,13.7,11.68,23.08,26.38,22.96c14.42-0.12,22.35-9.48,25.83-22.83
		c12.73,0,24.88,0,37.69,0c-1.78,21.28-10.6,37.9-27.61,49.65c-22.74,15.72-46.5,16.06-69.84,1.83
		C36.29,305.15,27.12,287.39,24.41,264.91z"/>
	<path class="st0" d="M62.6,257.4c-12.91,0-25.11,0-38.03,0c2.26-21.26,11.03-38.22,28.26-49.92c21.46-14.56,44.31-15.84,66.85-2.95
		c19.87,11.36,30.72,29.08,32.67,52.83c-12.78,0-24.94,0-37.6,0c-4-13.59-11.92-23.16-27.4-22.52
		C73.33,235.43,66.27,244.66,62.6,257.4z"/>
	<path class="st0" d="M188.82,109.57c12.89,0,24.78,0,37.29,0c4.36,12.34,10.99,22.7,26.31,22.66c14.93-0.04,22.31-9.18,26.34-22.66
		c12.33,0,24.52,0,37.77,0c-1.52,18.89-9.09,34.21-23.16,46.37c-19.35,16.74-47.29,20.24-70.43,7.52
		C202.34,152.15,190.97,134.19,188.82,109.57z"/>
	<path class="st0" d="M188.8,102.61c1.99-22.27,10.96-39,28.31-50.66c22.15-14.89,45.37-15.58,68.17-1.94
		c19.04,11.39,28.92,29.05,31.37,51.92c-12.91,0-25.08,0-37.28,0c-2.35-4.47-4.09-9.5-7.23-13.39c-6.52-8.06-15.44-10.87-25.56-8.5
		c-9.54,2.23-15.22,8.74-18.82,17.68c-0.84,2.09-3.87,4.57-5.99,4.67C211.2,102.87,200.6,102.61,188.8,102.61z"/>
	<path class="st0" d="M231.7,105.55c0.06-11.15,10.21-21.32,21.06-21.09c11.37,0.24,20.67,9.89,20.63,21.39
		c-0.04,11.58-9.54,21.35-20.72,21.3C241.2,127.11,231.65,117.27,231.7,105.55z"/>
	<path class="st0" d="M109.53,261.34c-0.07,11.4-9.63,21.14-20.8,21.19c-11.35,0.05-20.82-9.5-20.83-21.02
		c-0.01-12.04,9.19-21.44,20.94-21.38C100.06,240.18,109.59,249.95,109.53,261.34z"/>
	<path class="st0" d="M173.16,305.54c11.68,8.04,30.16,8.21,30.66,29.42c-16.19-7.45-31.91-14.69-48.33-22.25
		c7.89-16.31,15.37-31.77,22.91-47.37c5.51,4.31,7.38,14.27,4.38,20.4C179.59,292.29,176.41,298.85,173.16,305.54z"/>
	<path class="st0" d="M163.22,101.58c-4.19-7.23-9.44-13.37-3.98-21.54c3.73-5.59,6.09-12.09,9.13-18.32
		c-11.45-8.34-30.24-8.24-30.54-29.54c16.29,7.51,32.03,14.76,48.26,22.24C178.18,70.73,170.7,86.16,163.22,101.58z"/>
</g>
</svg>
