<?xml version="1.0" encoding="utf-8"?>
<!-- Generator: Adobe Illustrator 24.1.0, SVG Export Plug-In . SVG Version: 6.00 Build 0)  -->
<svg version="1.1" id="Layer_1" xmlns="http://www.w3.org/2000/svg" xmlns:xlink="http://www.w3.org/1999/xlink" x="0px" y="0px"
	 viewBox="0 0 459.69 442.88" style="enable-background:new 0 0 459.69 442.88;" xml:space="preserve">
<style type="text/css">
	.st0{fill:#999696;}
	.st1{fill:#FFFFFF;}
	.st2{fill:#B9DDEA;}
	.st3{fill:#E1262A;}
	.st4{fill:#EE2D3A;}
	.st5{fill:#ECEFF0;}
</style>
<g>
	<path class="st0" d="M229.9,0.04c71.35,0,142.69,0,214.04,0c1.68,0,3.36-0.03,5.04-0.03c6.3-0.01,11.16,5.17,10.67,11.44
		c-0.19,2.43-1.27,4.59-2.38,6.72c-3.51,6.72-7.02,13.45-10.53,20.18c-2.89,5.56-5.79,11.11-8.67,16.67
		c-4.59,8.86-9.15,17.74-13.76,26.6c-3.61,6.95-7.29,13.86-10.9,20.8c-4.2,8.08-8.35,16.18-12.54,24.25
		c-4.82,9.28-9.66,18.55-14.48,27.84c-4.97,9.57-9.91,19.15-14.89,28.71c-4.92,9.46-9.87,18.9-14.79,28.36
		c-5.87,11.3-11.7,22.62-17.57,33.93c-5.26,10.13-10.56,20.25-15.82,30.38c-4.11,7.9-8.19,15.81-12.3,23.71
		c-4.98,9.56-9.99,19.11-14.95,28.67c-4.54,8.75-9.04,17.53-13.58,26.28c-4.82,9.28-9.66,18.55-14.49,27.83
		c-5.5,10.56-11,21.11-16.49,31.67c-4.05,7.79-8.05,15.61-12.13,23.39c-2.97,5.67-10.79,7.2-15.81,3.24
		c-2.04-1.61-3.33-3.71-4.49-5.96c-3.85-7.49-7.75-14.95-11.63-22.42c-3.9-7.51-7.79-15.03-11.7-22.53
		c-4.29-8.25-8.61-16.49-12.9-24.75c-3.46-6.66-6.88-13.34-10.34-20c-4.95-9.53-9.93-19.05-14.88-28.59
		c-4.46-8.57-8.89-17.16-13.35-25.73c-4.91-9.46-9.84-18.91-14.75-28.38c-4.6-8.86-9.18-17.73-13.79-26.58
		c-3.22-6.2-6.49-12.37-9.71-18.57c-5.14-9.88-10.25-19.78-15.38-29.66c-3.37-6.49-6.76-12.96-10.13-19.44
		c-4.17-8.04-8.31-16.1-12.48-24.14c-4.78-9.21-9.6-18.41-14.39-27.62c-5.69-10.95-11.35-21.9-17.04-32.85
		c-5.52-10.63-11.07-21.25-16.6-31.87c-5.05-9.7-10.1-19.41-15.15-29.12c-1.21-2.33-2.46-4.65-3.66-7C-2.45,8.28,2.65,0,10.7,0
		c73.07,0,146.13,0,219.2,0C229.9,0.01,229.9,0.02,229.9,0.04z M27.26,22.5c0.8,1.57,1.49,2.96,2.22,4.33
		c4.14,7.84,8.29,15.67,12.42,23.51c3.93,7.46,7.81,14.93,11.74,22.38c5.53,10.49,11.08,20.96,16.62,31.45
		c4.92,9.32,9.81,18.65,14.72,27.98c5.17,9.82,10.37,19.63,15.54,29.45c5.97,11.34,11.92,22.69,17.89,34.03
		c3.48,6.61,6.99,13.19,10.47,19.8c3.2,6.08,6.34,12.18,9.54,18.26c3.91,7.42,7.86,14.81,11.77,22.23
		c4.15,7.87,8.26,15.77,12.4,23.65c5.41,10.29,10.82,20.56,16.24,30.84c5.4,10.24,10.79,20.49,16.2,30.72
		c6.23,11.79,12.47,23.58,18.69,35.38c5.21,9.89,10.4,19.79,15.61,29.68c0.19,0.37,0.3,0.96,0.79,0.94
		c0.39-0.02,0.49-0.57,0.68-0.92c3.93-7.45,7.84-14.91,11.77-22.36c4.92-9.32,9.87-18.62,14.78-27.95
		c4.82-9.15,9.59-18.32,14.41-27.47c5.29-10.03,10.62-20.04,15.9-30.08c4.18-7.94,8.31-15.91,12.49-23.86
		c3.87-7.35,7.79-14.67,11.66-22.02c5.53-10.49,11.02-21,16.54-31.5c5.64-10.71,11.31-21.4,16.95-32.11
		c4.97-9.43,9.92-18.87,14.89-28.3c4.12-7.81,8.26-15.6,12.37-23.41c4.16-7.91,8.29-15.84,12.45-23.75
		c5.64-10.71,11.31-21.4,16.95-32.11c6.22-11.8,12.41-23.61,18.62-35.41c3.85-7.31,7.73-14.61,11.59-21.92
		c0.78-1.47,0.76-1.48-0.97-1.48c-134.13,0-268.26,0-402.39,0C28.38,22.5,27.94,22.5,27.26,22.5z"/>
	<path class="st1" d="M27.26,22.47c0.69,0,1.12,0,1.56,0c134.13,0,268.26,0,402.39,0c1.73,0,1.75,0.01,0.97,1.48
		c-3.86,7.31-7.74,14.61-11.59,21.92c-6.21,11.8-12.41,23.61-18.62,35.41c-5.64,10.71-11.31,21.4-16.95,32.11
		c-4.17,7.91-8.29,15.84-12.45,23.75c-4.11,7.81-8.25,15.6-12.37,23.41c-4.97,9.43-9.92,18.87-14.89,28.3
		c-5.64,10.7-11.31,21.4-16.95,32.11c-5.53,10.49-11.01,21-16.54,31.5c-3.87,7.35-7.8,14.67-11.66,22.02
		c-4.18,7.94-8.3,15.92-12.49,23.86c-5.28,10.03-10.62,20.04-15.9,30.08c-4.82,9.15-9.59,18.32-14.41,27.47
		c-4.91,9.32-9.86,18.63-14.78,27.95c-3.93,7.45-7.85,14.91-11.77,22.36c-0.18,0.35-0.29,0.9-0.68,0.92
		c-0.49,0.02-0.59-0.58-0.79-0.94c-5.21-9.89-10.4-19.79-15.61-29.68c-6.22-11.8-12.47-23.58-18.69-35.38
		c-5.4-10.24-10.8-20.48-16.2-30.72c-5.42-10.28-10.83-20.56-16.24-30.84c-4.14-7.88-8.25-15.77-12.4-23.65
		c-3.91-7.42-7.86-14.81-11.77-22.23c-3.2-6.07-6.35-12.18-9.54-18.26c-3.48-6.61-6.99-13.2-10.47-19.8
		c-5.97-11.34-11.92-22.69-17.89-34.03c-5.17-9.82-10.36-19.63-15.54-29.45c-4.91-9.32-9.81-18.65-14.72-27.98
		C64.72,93.66,59.16,83.19,53.63,72.7c-3.93-7.45-7.81-14.93-11.74-22.38c-4.13-7.84-8.29-15.67-12.42-23.51
		C28.75,25.43,28.06,24.05,27.26,22.47z M411.21,44.11c2.3-4.3,4.6-8.6,6.99-13.09c-0.71,0-1.14,0-1.57,0
		c-70.81-0.01-141.62-0.02-212.43-0.02c-0.52,0-1.03,0.06-1.55,0.09c-0.28-0.02-0.55-0.07-0.83-0.07
		c-36.67-0.01-73.35-0.02-110.02-0.03c-16.28,0-32.55,0.01-48.83-0.02c-1.05,0-1.23,0.19-0.72,1.15c2.43,4.54,4.81,9.1,7.21,13.65
		c4.6,8.72,9.2,17.43,13.79,26.15c4.81,9.15,9.61,18.3,14.43,27.44c4.63,8.79,9.27,17.57,13.9,26.36
		c3.51,6.67,7.01,13.35,10.53,20.03c3.89,7.38,7.79,14.75,11.68,22.13c4.28,8.12,8.54,16.24,12.81,24.36
		c3.47,6.6,6.93,13.21,10.41,19.81c1.78,3.38,3.61,6.73,5.41,10.1c1.6,3.11,3.23,6.21,4.87,9.3c1.6,3.03,3.15,6.08,4.76,9.11
		c2.29,4.32,4.54,8.66,6.82,12.98c1.1,2.08,2.24,4.14,3.34,6.22c1.69,3.2,3.34,6.41,5.03,9.61c1.02,1.93,2.22,3.79,3.1,5.78
		c1.05,2.38,2.42,4.58,3.55,6.91c1.82,3.72,3.87,7.33,5.8,11c2.37,4.52,4.71,9.05,7.09,13.57c3.34,6.34,6.71,12.67,10.05,19.01
		c2.13,4.05,4.14,8.17,6.37,12.18c2.57,4.63,4.93,9.37,7.44,14.04c2.21,4.1,4.3,8.27,6.47,12.39c2.64,5.01,5.31,10.01,7.96,15.01
		c1.59,3.01,3.17,6.04,4.81,9.18c0.83-1.12,1.27-2.27,1.84-3.35c4.87-9.21,9.75-18.4,14.61-27.61c2.14-4.05,4.23-8.14,6.37-12.19
		c3.19-6.04,6.42-12.05,9.6-18.09c2.32-4.41,4.58-8.85,6.9-13.25c3.15-5.97,6.35-11.9,9.49-17.88c2.85-5.43,5.61-10.91,8.47-16.34
		c3.88-7.38,7.83-14.72,11.73-22.08c1.79-3.38,3.5-6.8,5.29-10.19c2.23-4.23,4.5-8.44,6.74-12.66c2.32-4.37,4.62-8.76,6.93-13.14
		c2.07-3.91,4.16-7.81,6.22-11.73c1.41-2.68,2.76-5.39,4.16-8.07c1.31-2.5,2.65-4.99,3.97-7.49c1.56-2.96,3.1-5.93,4.66-8.89
		c2.14-4.06,4.32-8.1,6.42-12.18c1.64-3.19,3.26-6.39,4.94-9.55c1.93-3.66,3.9-7.31,5.79-10.99c2.01-3.9,4.25-7.67,6.19-11.6
		c2.28-4.61,4.83-9.09,7.24-13.64c2.37-4.47,4.77-8.93,7.06-13.44c4.52-8.89,9.5-17.54,13.8-26.54c0.69-1.43,1.56-2.78,2.3-4.19
		c1.68-3.21,3.29-6.45,4.99-9.65c1.91-3.61,3.89-7.18,5.83-10.77c1.82-3.37,3.67-6.72,5.4-10.14c0.88-1.74,1.97-3.37,2.56-5.25
		C410.14,46.49,410.77,45.36,411.21,44.11z"/>
	<path class="st2" d="M409.39,47.57c-0.59,1.87-1.68,3.51-2.56,5.25c-1.73,3.42-3.58,6.77-5.4,10.14c-1.94,3.6-3.92,7.17-5.83,10.77
		c-1.7,3.2-3.31,6.44-4.99,9.65c-0.74,1.41-1.61,2.75-2.3,4.19c-4.3,9-9.28,17.65-13.8,26.54c-2.29,4.51-4.69,8.97-7.06,13.44
		c-2.41,4.55-4.96,9.03-7.24,13.64c-1.94,3.93-4.18,7.7-6.19,11.6c-1.89,3.67-3.86,7.33-5.79,10.99c-1.67,3.16-3.29,6.37-4.94,9.55
		c-2.11,4.08-4.29,8.12-6.42,12.18c-1.56,2.96-3.1,5.93-4.66,8.89c-1.32,2.5-2.66,4.99-3.97,7.49c-1.4,2.68-2.76,5.39-4.16,8.07
		c-2.06,3.92-4.15,7.82-6.22,11.73c-2.31,4.38-4.62,8.76-6.93,13.14c-2.24,4.23-4.51,8.43-6.74,12.66
		c-1.78,3.38-3.5,6.81-5.29,10.19c-3.9,7.37-7.85,14.71-11.73,22.08c-2.86,5.43-5.61,10.91-8.47,16.34
		c-3.14,5.97-6.34,11.91-9.49,17.88c-2.32,4.41-4.58,8.85-6.9,13.25c-3.18,6.04-6.41,12.05-9.6,18.09
		c-2.14,4.05-4.23,8.14-6.37,12.19c-4.86,9.21-9.75,18.4-14.61,27.61c-0.57,1.08-1.01,2.23-1.84,3.35
		c-1.64-3.14-3.22-6.16-4.81-9.18c-2.65-5.01-5.32-10-7.96-15.01c-2.17-4.12-4.26-8.29-6.47-12.39c-2.51-4.66-4.87-9.4-7.44-14.04
		c-2.22-4-4.23-8.12-6.37-12.18c-3.34-6.34-6.71-12.67-10.05-19.01c-2.38-4.52-4.71-9.05-7.09-13.57c-1.93-3.67-3.98-7.28-5.8-11
		c-1.14-2.33-2.5-4.53-3.55-6.91c-0.88-1.99-2.08-3.85-3.1-5.78c-1.69-3.2-3.35-6.41-5.03-9.61c-1.1-2.08-2.24-4.14-3.34-6.22
		c-2.28-4.32-4.53-8.66-6.82-12.98c-1.6-3.03-3.15-6.08-4.76-9.11c-1.64-3.09-3.27-6.19-4.87-9.3c1.33-3.39,2.65-6.79,3.97-10.18
		c0.04-0.03,0.07-0.07,0.09-0.11c1.15-2.74,2.09-5.57,3.5-8.2c0.25-0.07,0.34-0.26,0.32-0.5c0.13-0.37,0.23-0.76,0.41-1.11
		c2.18-4.33,4.25-8.71,6.53-12.99c2.69-5.05,5.51-10.03,8.52-14.89c3.97-6.4,8.2-12.63,12.69-18.69c3.41-4.6,6.92-9.1,10.61-13.46
		c3.65-4.32,7.49-8.47,11.37-12.59c5.99-6.36,12.38-12.3,18.99-17.99c4.71-4.06,9.56-7.97,14.61-11.63
		c4.92-3.56,9.88-7.06,14.97-10.37c5.56-3.62,11.28-6.96,17.11-10.12c3.36-1.82,6.73-3.67,10.19-5.29
		c5.05-2.38,10.14-4.7,15.31-6.83c5.53-2.28,11.12-4.39,16.79-6.29c7.46-2.49,15.01-4.7,22.67-6.49c5.65-1.32,11.31-2.57,17.03-3.5
		c4.8-0.78,9.58-1.62,14.42-2.07c3.39-0.32,6.76-0.83,10.16-1.1c3.69-0.3,7.39-0.57,11.09-0.61c8.31-0.09,16.62-0.18,24.93,0.22
		C408.95,47.38,409.17,47.5,409.39,47.57z"/>
	<path class="st3" d="M409.39,47.57c-0.22-0.07-0.44-0.19-0.67-0.2c-8.31-0.4-16.62-0.3-24.93-0.22c-3.7,0.04-7.4,0.31-11.09,0.61
		c-3.39,0.28-6.77,0.78-10.16,1.1c-4.84,0.46-9.63,1.3-14.42,2.07c-5.73,0.93-11.39,2.18-17.03,3.5c-7.66,1.8-15.21,4-22.67,6.49
		c-5.67,1.89-11.26,4.01-16.79,6.29c-5.17,2.13-10.25,4.45-15.31,6.83c-3.46,1.63-6.82,3.47-10.19,5.29
		c-5.83,3.16-11.55,6.51-17.11,10.12c-5.09,3.31-10.05,6.81-14.97,10.37c-5.06,3.66-9.9,7.57-14.61,11.63
		c-6.61,5.69-13,11.63-18.99,17.99c-3.88,4.12-7.72,8.27-11.37,12.59c-3.68,4.37-7.2,8.87-10.61,13.46
		c-4.49,6.06-8.72,12.28-12.69,18.69c-3.01,4.86-5.83,9.84-8.52,14.89c-2.28,4.28-4.36,8.66-6.53,12.99
		c-0.18,0.35-0.27,0.74-0.41,1.11c-0.13,0.15-0.4,0.22-0.32,0.5c-1.41,2.63-2.36,5.46-3.5,8.2c0,0-0.09,0.03-0.09,0.03l0,0.09
		c-1.32,3.39-2.65,6.79-3.97,10.18c-1.81-3.37-3.63-6.72-5.41-10.1c-3.48-6.6-6.94-13.21-10.41-19.81
		c-4.27-8.12-8.54-16.24-12.81-24.36c-3.89-7.38-7.79-14.75-11.68-22.13c-3.51-6.67-7.01-13.35-10.53-20.03
		c-4.63-8.79-9.27-17.57-13.9-26.36c-4.81-9.15-9.61-18.3-14.43-27.44c-4.59-8.72-9.2-17.44-13.79-26.15
		c-2.4-4.55-4.78-9.12-7.21-13.65c-0.51-0.96-0.34-1.15,0.72-1.15c16.28,0.03,32.55,0.02,48.83,0.02
		c36.67,0.01,73.34,0.01,110.02,0.03c0.28,0,0.55,0.05,0.83,0.07c0.06,0.27,0.11,0.54,0.2,0.8c0.46,1.28,2.15,1.67,2.32,3.23
		c0.04,0.39,0.4,0.82,0.38,1.31c-0.01,0.34,0.05,0.65,0.48,0.69c1.88,0.17,1.93,1.86,2.33,3.07c0.42,1.25,0.87,2.46,1.49,3.62
		c0.15,0.29,0.35,0.54,0.65,0.68c1.31,0.65,2.33,2.6,2.09,4c-0.08,0.47-0.23,0.82,0.59,0.72c0.95-0.12,1.66,0.91,1.51,1.92
		c-0.12,0.77,0.16,1.41,0.62,1.99c1.01,1.3,2.68,2.27,2.02,4.38c-0.24,0.77,0.51,1.08,1.03,1.43c1,0.66,1.44,1.99,2.79,2.29
		c0.35,0.08,0.33,0.59-0.13,0.8c-0.3,0.14-0.73-0.14-0.99,0.34c0.43,0.46,1.07,0.48,1.58,0.76c0.46,0.26,1.6,0.16,0.44,1.08
		c-0.12,0.1-0.19,0.34-0.01,0.4c1.11,0.41,1.58,1.15,1.32,2.33c-0.01,0.03,0.03,0.07,0.05,0.11c0.62,1.18,2.24,1.79,1.99,3.47
		c0,0.03,0.04,0.07,0.07,0.09c0.56,0.42,0.73,0.99,0.73,1.68c0,0.43,0.38,0.83,0.71,0.89c0.89,0.18,1.12,0.95,1.3,1.55
		c0.23,0.74,0.53,1.2,1.28,1.38c0.22,0.05,0.47,0.19,0.46,0.48c0,0.17-0.14,0.24-0.29,0.33c-0.93,0.53-0.95,0.95,0.04,1.38
		c0.66,0.28,0.91,0.64,0.74,1.26c-0.26,0.97,0.13,1.25,1.03,1.11c0.6-0.1,0.75,0.2,0.51,0.69c-0.3,0.62-0.56,1.13,0.55,1
		c0.26-0.03,0.37,0.39,0.34,0.68c-0.1,1.18,0.67,2.09,0.99,3.14c0.16,0.54,0.32,1.29,1.3,0.91c0.36-0.14,0.7,0.32,0.53,0.71
		c-0.39,0.9,0.18,1.15,0.83,1.36c0.56,0.18,0.89,0.46,0.48,1.03c-0.33,0.46-0.12,0.64,0.23,0.95c0.96,0.88,1.82,0.82,2.88,0.11
		c4.89-3.27,9.75-6.59,14.87-9.49c4.19-2.37,8.36-4.77,12.63-7c5.22-2.73,10.52-5.28,15.87-7.75c3.8-1.75,7.65-3.37,11.58-4.83
		c2.91-1.08,5.77-2.34,8.73-3.25c4.79-1.47,9.47-3.27,14.34-4.53c2.64-0.68,5.27-1.45,7.92-2.15c7.26-1.92,14.56-3.67,22-4.77
		c4.36-0.64,8.7-1.4,13.07-1.93c3.42-0.42,6.87-0.73,10.3-1.05c4.48-0.42,8.96-0.79,13.44-0.84c8.78-0.11,17.57-0.32,26.33,0.44
		C410.77,45.36,410.14,46.49,409.39,47.57z M161.34,93.26c-0.68,1.2-0.98,2.52-1.13,3.87c-0.02,0.07-0.04,0.15-0.07,0.22
		c-0.17,0.1-0.2,0.26-0.19,0.44c-0.35,1.07-0.95,2.01-1.51,2.98c-4.93,8.39-16.34,12.18-25.35,8.41
		c-6.82-2.86-11.12-7.86-12.83-15.06c-0.15-0.64-0.29-1.04-1.12-1.03c-9.28,0.04-18.56,0.03-27.83,0.01c-0.84,0-0.99,0.29-0.92,1.06
		c0.75,8.06,3.21,15.56,7.55,22.39c6.08,9.58,14.43,16.44,25.09,20.43c10.42,3.89,20.99,4.25,31.68,1.24
		c7.14-2.02,13.51-5.5,19.11-10.39c8.13-7.1,13.48-15.87,16-26.37c0.75-0.92,0.78-2.01,0.76-3.11c0.03-0.16,0.06-0.32,0.09-0.48
		c0.61-1.36,0.54-2.84,0.72-4.27c0.1-0.81-0.61-0.78-1.18-0.78c-9.27,0-18.53,0-27.8,0.01c-0.37,0-0.83-0.15-1.02,0.37L161.34,93.26
		z M176.29,86.27C176.29,86.27,176.29,86.28,176.29,86.27c4.56,0.01,9.12-0.02,13.68,0.03c1.01,0.01,1.15-0.28,1.07-1.23
		c-0.55-5.91-2.02-11.59-4.61-16.91c-6.85-14.04-17.83-23.27-32.9-27.31c-12.6-3.38-24.93-2.03-36.4,4.22
		c-15.78,8.6-24.63,22.05-26.72,39.92c-0.12,1,0.1,1.3,1.15,1.29c9-0.04,18-0.04,26.99,0.01c1.09,0.01,1.56-0.22,1.83-1.39
		c2.26-9.82,10.9-16.37,20.68-16.18c9.71,0.19,17.81,6.64,20.1,16.5c0.19,0.83,0.49,1.08,1.34,1.07
		C167.09,86.25,171.69,86.27,176.29,86.27z M154.57,89.64c-0.03-7.7-6.2-13.83-13.91-13.82c-7.68,0.01-13.83,6.21-13.81,13.92
		c0.02,7.68,6.21,13.84,13.91,13.82C148.44,103.53,154.6,97.33,154.57,89.64z"/>
	<path class="st4" d="M411.21,44.11c-8.77-0.75-17.56-0.54-26.33-0.44c-4.48,0.05-8.96,0.43-13.44,0.84
		c-3.44,0.32-6.88,0.64-10.3,1.05c-4.37,0.53-8.71,1.29-13.07,1.93c-7.44,1.1-14.74,2.85-22,4.77c-2.64,0.7-5.28,1.47-7.92,2.15
		c-4.87,1.26-9.55,3.06-14.34,4.53c-2.96,0.91-5.82,2.17-8.73,3.25c-3.92,1.46-7.78,3.08-11.58,4.83
		c-5.34,2.47-10.65,5.02-15.87,7.75c-4.27,2.23-8.44,4.63-12.63,7c-5.12,2.9-9.98,6.22-14.87,9.49c-1.07,0.71-1.92,0.77-2.88-0.11
		c-0.35-0.32-0.56-0.49-0.23-0.95c0.41-0.57,0.08-0.85-0.48-1.03c-0.64-0.21-1.22-0.46-0.83-1.36c0.17-0.39-0.16-0.85-0.53-0.71
		c-0.98,0.38-1.13-0.37-1.3-0.91c-0.32-1.05-1.09-1.96-0.99-3.14c0.02-0.29-0.08-0.71-0.34-0.68c-1.11,0.13-0.85-0.38-0.55-1
		c0.24-0.49,0.09-0.79-0.51-0.69c-0.9,0.15-1.29-0.14-1.03-1.11c0.17-0.62-0.08-0.98-0.74-1.26c-0.99-0.42-0.96-0.85-0.04-1.38
		c0.15-0.09,0.29-0.16,0.29-0.33c0-0.29-0.24-0.43-0.46-0.48c-0.75-0.18-1.05-0.64-1.28-1.38c-0.18-0.6-0.41-1.37-1.3-1.55
		c-0.33-0.07-0.71-0.46-0.71-0.89c0-0.69-0.17-1.25-0.73-1.68c-0.03-0.02-0.08-0.06-0.07-0.09c0.25-1.68-1.38-2.29-1.99-3.47
		c-0.02-0.04-0.06-0.08-0.05-0.11c0.26-1.18-0.21-1.92-1.32-2.33c-0.18-0.07-0.12-0.31,0.01-0.4c1.16-0.91,0.02-0.82-0.44-1.08
		c-0.51-0.28-1.15-0.3-1.58-0.76c0.25-0.48,0.68-0.21,0.99-0.34c0.46-0.21,0.48-0.72,0.13-0.8c-1.35-0.3-1.79-1.63-2.79-2.29
		c-0.53-0.35-1.27-0.66-1.03-1.43c0.66-2.11-1.01-3.08-2.02-4.38c-0.46-0.59-0.74-1.22-0.62-1.99c0.15-1.01-0.57-2.04-1.51-1.92
		c-0.82,0.1-0.67-0.25-0.59-0.72c0.24-1.41-0.78-3.35-2.09-4c-0.3-0.15-0.49-0.39-0.65-0.68c-0.62-1.16-1.07-2.37-1.49-3.62
		c-0.41-1.21-0.45-2.9-2.33-3.07c-0.43-0.04-0.49-0.34-0.48-0.69c0.02-0.49-0.34-0.93-0.38-1.31c-0.18-1.57-1.86-1.95-2.32-3.23
		c-0.09-0.26-0.13-0.53-0.2-0.8c0.52-0.03,1.03-0.09,1.55-0.09c70.81,0,141.62,0.01,212.43,0.02c0.43,0,0.87,0,1.57,0
		C415.81,35.51,413.51,39.81,411.21,44.11z"/>
	<path class="st1" d="M150.01,203.69c-0.08-0.29,0.19-0.35,0.32-0.5C150.35,203.44,150.26,203.62,150.01,203.69z"/>
	<path class="st1" d="M146.42,212l0-0.09c0,0,0.09-0.03,0.09-0.03C146.49,211.94,146.46,211.97,146.42,212z"/>
	<path class="st5" d="M176.29,86.27c-4.6,0-9.2-0.02-13.8,0.02c-0.84,0.01-1.14-0.23-1.34-1.07c-2.29-9.86-10.38-16.31-20.1-16.5
		c-9.78-0.2-18.42,6.36-20.68,16.18c-0.27,1.17-0.73,1.39-1.83,1.39c-9-0.05-18-0.04-26.99-0.01c-1.04,0-1.27-0.29-1.15-1.29
		c2.09-17.88,10.94-31.33,26.72-39.92c11.47-6.25,23.79-7.6,36.4-4.22c15.07,4.04,26.05,13.27,32.9,27.31
		c2.6,5.33,4.07,11,4.61,16.91c0.09,0.95-0.06,1.24-1.07,1.23C185.41,86.25,180.85,86.28,176.29,86.27
		C176.29,86.28,176.29,86.27,176.29,86.27z"/>
	<path class="st5" d="M160.15,97.36c0.02-0.07,0.04-0.15,0.07-0.22c0.58-1.23,0.96-2.52,1.13-3.87c0,0,0.04-0.07,0.04-0.07
		c9.65-0.02,19.31-0.04,28.96-0.07c0.61,0,0.74,0.28,0.68,0.82c-0.14,1.31-0.25,2.61-0.37,3.92c-0.03,0.16-0.06,0.32-0.09,0.48
		c-0.25,1.04-0.51,2.08-0.76,3.11c-2.52,10.49-7.87,19.27-16,26.37c-5.6,4.89-11.97,8.37-19.11,10.39
		c-10.68,3.01-21.26,2.66-31.68-1.24c-10.66-3.98-19.01-10.85-25.09-20.43c-4.34-6.83-6.8-14.33-7.55-22.39
		c-0.07-0.77,0.08-1.06,0.92-1.06c9.28,0.03,18.56,0.03,27.83-0.01c0.83,0,0.97,0.39,1.12,1.03c1.71,7.2,6.01,12.21,12.83,15.06
		c9.01,3.78,20.42-0.01,25.35-8.41c0.57-0.96,1.16-1.91,1.51-2.98C160.02,97.66,160.08,97.51,160.15,97.36z"/>
	<path class="st5" d="M154.57,89.64c0.03,7.69-6.13,13.9-13.81,13.92c-7.69,0.02-13.89-6.13-13.91-13.82
		c-0.02-7.71,6.13-13.9,13.81-13.92C148.37,75.81,154.54,81.93,154.57,89.64z"/>
	<path class="st4" d="M190.65,97.86c0.12-1.31,0.23-2.62,0.37-3.92c0.06-0.54-0.07-0.82-0.68-0.82c-9.65,0.03-19.31,0.05-28.96,0.07
		c0.19-0.53,0.65-0.37,1.02-0.37c9.27-0.01,18.53-0.01,27.8-0.01c0.57,0,1.28-0.03,1.18,0.78C191.19,95.02,191.26,96.5,190.65,97.86
		z"/>
	<path class="st4" d="M161.34,93.26c-0.16,1.35-0.54,2.64-1.13,3.87C160.36,95.78,160.66,94.47,161.34,93.26z"/>
	<path class="st4" d="M189.81,101.46c0.25-1.04,0.51-2.08,0.76-3.11C190.58,99.45,190.56,100.54,189.81,101.46z"/>
	<path class="st4" d="M160.15,97.36c-0.06,0.15-0.13,0.29-0.19,0.44C159.94,97.62,159.98,97.47,160.15,97.36z"/>
</g>
</svg>
