<?xml version="1.0" encoding="utf-8"?>
<!-- Generator: Adobe Illustrator 24.1.0, SVG Export Plug-In . SVG Version: 6.00 Build 0)  -->
<svg version="1.1" id="Layer_1" xmlns="http://www.w3.org/2000/svg" xmlns:xlink="http://www.w3.org/1999/xlink" x="0px" y="0px"
	 viewBox="0 0 364.63 599.95" style="enable-background:new 0 0 364.63 599.95;" xml:space="preserve">
<style type="text/css">
	.st0{fill:#6A552F;}
	.st1{fill:#4D3520;}
	.st2{fill:#F7D04F;}
	.st3{fill:#884D35;}
</style>
<g>
	<path class="st0" d="M184.32,595.78c-0.9,1.39-1.81,2.78-2.71,4.17c-0.92,0-1.84,0-2.75,0c-1.1-1.17-2.19-2.33-3.29-3.5
		C178.48,596.23,181.4,596,184.32,595.78z"/>
	<path class="st1" d="M184.32,595.78c-2.92,0.22-5.84,0.45-8.75,0.67c-0.48-0.47-0.97-0.94-1.45-1.41
		c-1.66-1.55-3.32-3.11-4.98-4.66c0,0,0.03,0.03,0.03,0.03c-1.32-1.2-2.64-2.39-3.96-3.59c0,0-0.05-0.05-0.05-0.05
		c0.08-1.79-0.43-3.92,0.36-5.3c1.83-3.19,4.29-6.01,6.5-8.98c0,0,0.04-0.03,0.04-0.03c0.15-0.29,0.3-0.59,0.46-0.88l0.15,0.11
		c0,0-0.16-0.09-0.16-0.09c0.75-0.86,1.51-1.72,2.26-2.58c0,0,0.01-0.02,0.01-0.02c0.45-0.46,0.9-0.92,1.35-1.38
		c0,0,0.01-0.01,0.01-0.01c3.24-3.8,6.48-7.6,9.72-11.4c0.71-0.77,1.42-1.53,2.13-2.3c2.72-3.18,5.44-6.35,8.16-9.53l0.09-0.22
		c0,0,0.24-0.02,0.24-0.02c0.3-0.33,0.59-0.66,0.89-0.98c0.29-0.32,0.58-0.65,0.86-0.97c0.49-0.7,0.98-1.41,1.46-2.11
		c-0.04-0.48-0.08-0.96-0.13-1.44c-0.44-0.46-0.88-0.91-1.31-1.36c0,0-0.06-0.05-0.06-0.05c-0.43-0.45-0.86-0.89-1.3-1.34
		c0,0-0.06-0.07-0.06-0.07c-2.17-2.39-4.34-4.78-6.5-7.16c0,0-0.03-0.03-0.03-0.03c-2.85-3.08-5.7-6.16-8.55-9.25
		c-0.25-0.26-0.5-0.51-0.75-0.77c-1.6-1.8-3.21-3.6-4.81-5.4c0,0-0.03-0.03-0.03-0.03c-1.75-1.84-3.5-3.68-5.25-5.52
		c-0.55-0.66-1.11-1.32-1.66-1.98c-0.44-0.48-0.87-0.95-1.31-1.43c0,0-0.04-0.04-0.04-0.04c-0.89-0.91-1.79-1.82-2.68-2.74
		c0,0-0.05-0.06-0.05-0.06c-2.28-2.5-4.56-5.01-6.84-7.51c0,0-0.05-0.04-0.05-0.04c-0.65-0.68-1.29-1.36-1.94-2.04
		c-0.52-0.66-1.03-1.32-1.55-1.97c-2.73-3.29-5.73-6.39-8.1-9.92c-2.84-4.23-11.27-6.71-4.98-14.19l0,0
		c0.47-0.44,0.94-0.89,1.41-1.33c0,0,0.01-0.01,0.01-0.01c0.47-0.43,0.93-0.85,1.4-1.27c0,0,0.07-0.06,0.07-0.06
		c0.43-0.42,0.86-0.84,1.28-1.27c0.28-0.27,0.56-0.54,0.84-0.81c1.1-0.91,2.19-1.83,3.29-2.74c0,0,0.03-0.03,0.03-0.03
		c0.69-0.65,1.37-1.3,2.06-1.95c0.53-0.48,1.07-0.96,1.6-1.44c1.3-1.15,2.6-2.29,3.91-3.44c0.26-0.24,0.51-0.48,0.77-0.72
		c2.04-1.82,4.07-3.63,6.11-5.45c0,0,0.04-0.05,0.04-0.05c1.58-1.4,3.16-2.79,4.74-4.19c0.13-0.2,0.27-0.39,0.4-0.59
		c2.4-2.07,4.79-4.15,7.19-6.22c0,0,0.03-0.04,0.03-0.04c1.83-1.59,3.65-3.19,5.48-4.78c0,0,0.03-0.03,0.03-0.03
		c2.75-2.5,5.49-5,8.24-7.49c0,0,0.08-0.07,0.08-0.07c0.2-0.19,0.4-0.39,0.61-0.58c0,0,0.08-0.09,0.08-0.09
		c2.23-0.93,4.45-1.87,6.68-2.8c0.2,0.09,0.27,0.24,0.23,0.45c0,0.38,0,0.76,0,1.14c0.07,0.19,0.02,0.34-0.14,0.46
		c-0.23,0.25-0.46,0.49-0.69,0.74c-0.05,0.16-0.15,0.22-0.32,0.19c-0.53,0.49-1.05,0.97-1.58,1.46c-0.34,0.35-0.68,0.69-1.02,1.04
		c-0.18,0.14-0.36,0.28-0.54,0.43c-0.13,0.2-0.32,0.32-0.56,0.35c-0.5,0.44-1,0.88-1.49,1.32c-0.56,0.52-1.11,1.04-1.67,1.56
		c-0.23,0.32-0.46,0.64-0.7,0.97c-0.46,0.98-0.92,1.95-1.38,2.93c-1.33,0.85-2.79,1.53-3.96,2.56
		c-12.64,11.2-25.34,22.34-37.71,33.83c-1.36,1.27-2.01,5.65-0.98,6.79c18.78,20.82,37.93,41.3,56.74,62.09
		c1.21,1.33,1.37,5.43,0.25,6.76c-10.53,12.63-21.54,24.85-32.08,37.46c-1.03,1.23-0.62,5.56,0.54,6.34
		c3.18,2.15,9.12,5.46,10.45,4.3c20.72-18.1,40.97-36.74,60.99-55.62c1.47-1.39,1.53-6.5,0.16-8.3
		c-10.41-13.71-21.4-26.96-31.96-40.56c-0.86-1.11-0.53-4.39,0.5-5.53c5.22-5.74,10.85-11.1,16.34-16.6l0.09-0.01
		c0.26-0.18,0.52-0.35,0.78-0.53c2.86-1.66,5.72-3.33,8.58-4.99c0.78-0.66,1.56-1.31,2.34-1.97l0.02-0.01
		c0.71-0.66,1.41-1.33,2.12-1.99l0.01,0c0.62-0.51,1.24-1.03,1.86-1.54l0.04-0.03c0.98-0.85,1.95-1.69,2.93-2.54l0,0.01
		c0.25-0.24,0.49-0.47,0.74-0.71c0.03-0.16,0.13-0.23,0.29-0.2c0.8-0.65,1.6-1.29,2.41-1.94c0.21-0.2,0.42-0.39,0.62-0.59
		c0.26-0.25,0.53-0.51,0.79-0.76l0.13-0.15l0.2,0.01c3.35-2.88,6.7-5.76,10.05-8.64l0.03-0.03c0.64-0.54,1.27-1.07,1.91-1.61
		c0.45-0.41,0.9-0.83,1.35-1.24c0.26-0.22,0.51-0.44,0.77-0.66l0.01-0.03c0.89-0.02,1.77-0.03,2.66-0.05c0.11,0.1,0.21,0.2,0.3,0.31
		c-4.43,4.65-8.86,9.3-13.29,13.94c-0.23,0.1-0.45,0.2-0.68,0.3c-1.6,1.37-3.19,2.73-4.79,4.1c0,0-0.04,0.03-0.04,0.03
		c-2.06,1.8-4.13,3.6-6.19,5.41c0,0-0.06,0.07-0.06,0.07c-1.35,1.12-2.71,2.25-4.06,3.37c-1.86,1.64-3.73,3.27-5.59,4.91
		c-0.2,0.18-0.39,0.37-0.59,0.55c-0.51,0.49-1.02,0.98-1.53,1.47c-0.86,0.69-1.73,1.38-2.59,2.07c-0.52,0.47-1.04,0.94-1.56,1.41
		c-0.17,0.18-0.34,0.36-0.51,0.53c-0.95,0.73-1.9,1.46-2.85,2.2c-0.43,0.42-0.87,0.84-1.3,1.26c0,0-0.13,0.13-0.13,0.13
		c-0.18,0.16-0.36,0.32-0.54,0.48c-0.95,0.75-1.9,1.51-2.86,2.26c-0.43,0.4-0.87,0.8-1.3,1.2l-0.04,0.2c0,0-0.21-0.01-0.21-0.01
		c-0.14,0.17-0.27,0.33-0.41,0.5c-0.3,0.28-0.61,0.55-0.91,0.83c-0.61,0.47-1.22,0.93-1.84,1.4c-0.14,0.22-0.27,0.45-0.41,0.67
		c0.08,0.74,0.17,1.48,0.25,2.22c0.49,0.54,0.98,1.09,1.47,1.63c0.22,0.36,0.44,0.72,0.65,1.09c0.26,0.26,0.51,0.52,0.77,0.78
		c0.89,1.12,1.78,2.25,2.68,3.37c0,0,0.07,0.09,0.07,0.09c0.68,0.88,1.37,1.75,2.05,2.63c0,0,0.06,0.08,0.06,0.08
		c1.12,1.36,2.24,2.72,3.35,4.08l0.06,0.07c0.39,0.45,0.78,0.9,1.17,1.34c0.31,0.44,0.62,0.88,0.93,1.33
		c0.22,0.22,0.44,0.45,0.66,0.67l0.03,0.02c0.2,0.23,0.4,0.45,0.6,0.68l0.06,0.1c0.13,0.18,0.27,0.37,0.4,0.55
		c0.25,0.05,0.39,0.21,0.4,0.47c0.42,0.54,0.84,1.09,1.26,1.63c0,0,0.03,0.02,0.03,0.02c0.41,0.47,0.83,0.93,1.24,1.4
		c0,0,0.08,0.12,0.08,0.12c0.89,1.1,1.78,2.21,2.67,3.31c0.71,0.76,1.43,1.51,2.14,2.27c0.63,0.85,1.26,1.7,1.89,2.55
		c0.29,0.38,0.59,0.76,0.88,1.13c0.4,0.55,0.8,1.09,1.2,1.64c0.31,0.45,0.62,0.9,0.93,1.35c0.35,0.23,0.7,0.47,1.06,0.7
		c0.54,0.75,1.08,1.5,1.62,2.25c0.88,1.08,1.76,2.16,2.64,3.24c0,0,0.14,0.13,0.14,0.13c0.54,0.58,1.07,1.16,1.61,1.74
		c0,0-0.03-0.01-0.03-0.01c0.49,2.18,0.99,4.36,1.48,6.54c0,0-0.02,0.03-0.02,0.03c-1.02,0.9-2.03,1.81-3.05,2.71
		c-0.48,0.38-0.95,0.76-1.43,1.14c-0.2,0.2-0.39,0.4-0.59,0.6c0,0-0.08,0.09-0.08,0.09c-0.2,0.2-0.41,0.39-0.61,0.59
		c0,0-0.12,0.09-0.12,0.09c-0.19,0.19-0.39,0.37-0.58,0.56c0,0-0.13,0.13-0.13,0.13c-0.19,0.18-0.37,0.35-0.56,0.53
		c-0.31,0.26-0.61,0.53-0.92,0.79c-1.77,1.56-3.54,3.12-5.32,4.68c-0.27,0.28-0.53,0.56-0.8,0.84c-1.3,1.2-2.59,2.4-3.89,3.6
		c0,0,0.03-0.03,0.03-0.03c-0.74,0.72-1.49,1.44-2.23,2.15c-0.71,0.62-1.43,1.24-2.14,1.85c-0.66,0.63-1.32,1.26-1.98,1.9
		c-0.61,0.5-1.22,0.99-1.83,1.49c-0.98,0.93-1.97,1.85-2.95,2.78c0,0-0.07,0.04-0.07,0.04c-1.37,1.31-2.74,2.62-4.11,3.92
		c0,0-0.16,0.16-0.16,0.16c-0.63,0.54-1.26,1.08-1.89,1.62c-0.45,0.4-0.89,0.81-1.34,1.21c-2.53,2.25-5.06,4.51-7.59,6.76
		c0,0-0.09,0.08-0.09,0.08c-1.28,1.22-2.57,2.45-3.85,3.67c0,0,0.02-0.02,0.02-0.02c-0.99,0.97-1.99,1.93-2.98,2.9
		c-0.46,0.35-0.92,0.7-1.38,1.06c-0.8,0.78-1.6,1.57-2.4,2.35l-0.17-0.12c0,0,0.14,0.15,0.14,0.15c-2.55,2.26-5.11,4.53-7.66,6.79
		c0,0,0.03-0.02,0.03-0.02c-0.45,0.48-0.9,0.96-1.36,1.44c0,0-0.16-0.23-0.16-0.23s0.17,0.22,0.17,0.22
		c-0.56,0.47-1.11,0.95-1.67,1.43C184.76,595.53,184.54,595.65,184.32,595.78z"/>
	<path class="st0" d="M146.46,2.66c13.89,12.26,28.98,23.41,41.42,36.99c33.37,36.43,66.09,73.5,98.16,111.09
		c26.62,31.2,51.96,63.49,77.76,95.38c0.82,1.01,1.12,3.93,0.5,4.39c-18.85,13.98-37.85,27.77-56.83,41.58
		c1.61-1.73,3.22-3.45,4.83-5.18c0.13,0.06,0.26,0.13,0.39,0.19c-0.06-0.13-0.13-0.26-0.19-0.39c-0.38-0.69-0.76-1.38-1.13-2.08
		c0.54-0.43,1.08-0.86,1.63-1.3c0.33,0.66,0.66,1.33,0.99,1.99c2.59-1.87,5.18-3.74,7.78-5.61c-1.32,0.03-2.64,0.06-3.97,0.1
		c2.51-1.83,5.01-3.66,7.52-5.49c-0.42,1.12-0.84,2.24-1.26,3.36c1.24-0.68,2.58-1.23,3.71-2.06c4.03-2.95,8.02-5.97,11.98-9.02
		c1.63-1.26,3.15-2.65,4.73-3.99c-1.64,0.45-3.27,0.9-4.91,1.36c3.04-2.3,6.08-4.6,9.12-6.9c-0.7,0.93-1.47,1.81-2.08,2.79
		c-0.35,0.57-0.44,1.29-0.65,1.95c0.62-0.14,1.38-0.09,1.83-0.45c4.79-3.82,9.53-7.7,14.29-11.57c0.39-0.44,0.78-0.88,1.13-1.35
		c0.02-0.02-0.41-0.36-0.62-0.56c-0.26,0.55-0.53,1.09-0.79,1.64c-2.38,1.08-4.77,2.16-7.15,3.24c1.25-2.43,4.19-6.24,3.5-7.09
		c-34.01-41.92-68.1-83.78-102.71-125.2c-18.61-22.27-38.19-43.72-57.33-65.55c0.45,0.02,0.9,0.04,1.35,0.06
		c0.12,0.07,0.25,0.14,0.37,0.21c-0.07-0.12-0.14-0.25-0.21-0.37c-1.38-1.6-2.76-3.21-4.14-4.81c-0.13-0.28-0.26-0.55-0.38-0.83
		c-0.08,0.07-0.24,0.17-0.23,0.19c0.14,0.27,0.3,0.52,0.46,0.77c0.02,0.66,0.05,1.32,0.07,1.97c-0.98-1.05-1.97-2.1-2.95-3.15
		c-0.38-1.25-0.76-2.49-1.14-3.74c-0.49-0.52-0.99-1.03-1.48-1.55c-0.13,0.14-0.26,0.28-0.39,0.42c0.59,0.41,1.18,0.81,1.78,1.22
		c-0.13,0.58-0.27,1.17-0.4,1.75c-1.52-1.48-3.03-2.96-4.55-4.43c0.64-0.29,1.29-0.59,1.93-0.88c-0.62-0.44-1.23-0.89-1.85-1.33
		c-0.22,0.51-0.45,1.01-0.67,1.52c-13.15-11.95-26.29-23.9-39.44-35.85C146.3,4.95,146.38,3.8,146.46,2.66z"/>
	<path class="st1" d="M146.46,2.66c-0.08,1.14-0.16,2.28-0.24,3.42c-0.63-0.4-1.26-0.81-1.89-1.21c-0.32-0.23-0.63-0.46-0.95-0.69
		c-0.33-0.13-0.66-0.26-1-0.4c-0.24-0.15-0.48-0.31-0.71-0.46c-0.23-0.1-0.46-0.2-0.68-0.3c-0.25-0.11-0.5-0.23-0.74-0.34
		c0,0,0.01,0.01,0.01,0.01c-0.65,0-1.3,0-1.96,0c0,0,0.02-0.01,0.02-0.01c-0.48,0.2-0.96,0.41-1.44,0.61
		c-0.08,0.17-0.2,0.22-0.38,0.17c-0.33,0.2-0.66,0.39-0.99,0.59c-0.43,0.21-0.86,0.42-1.3,0.63c-0.26,0.21-0.52,0.42-0.78,0.63
		c-0.98,0.62-1.97,1.23-2.95,1.85c-0.52,0.41-1.03,0.81-1.55,1.22c0,0-0.08,0.03-0.08,0.03c-0.51,0.41-1.02,0.82-1.54,1.24
		c-0.37,0.24-0.74,0.47-1.11,0.71c-0.29,0.23-0.58,0.46-0.87,0.68c-0.25,0.21-0.49,0.41-0.74,0.62c0,0,0,0,0,0
		c-0.25,0.23-0.5,0.46-0.74,0.69C99.7,38.48,74.42,63.69,51.76,91.06C34,112.51,19.5,136.64,3.55,159.58c0.02,1.5,0.04,3,0.06,4.51
		l0.07-0.01c-1.03,0.53-2.06,1.06-3.08,1.6c-0.23,0-0.43-0.08-0.6-0.24c0.44-4.01,0.89-8.02,1.33-12.04c0,0,0.04-0.05,0.04-0.05
		c4.57-7.34,9.15-14.68,13.72-22.02c0.11-0.22,0.23-0.43,0.35-0.65c0.54-0.8,1.07-1.61,1.61-2.41c0.41-0.57,0.82-1.15,1.23-1.72
		c0.78-1.12,1.57-2.24,2.35-3.35c0,0,0.1-0.11,0.1-0.11c0.4-0.47,0.81-0.93,1.22-1.4c0,0,0.03-0.03,0.03-0.03
		c2.3-3.18,4.6-6.35,6.91-9.53c0,0,0.05-0.06,0.05-0.06c0.86-1.04,1.73-2.09,2.59-3.13l-0.02-0.2c0,0,0.19-0.08,0.19-0.08
		c0.34-0.55,0.69-1.1,1.03-1.65l0.15,0.08c0,0-0.13-0.11-0.13-0.11c1.14-1.38,2.28-2.75,3.42-4.13l0.25,0.19
		c0,0-0.25-0.19-0.25-0.19c0.79-1.02,1.58-2.04,2.37-3.06c0,0,0.07-0.08,0.07-0.08c0.42-0.46,0.85-0.93,1.27-1.39
		c0.5-0.68,1-1.37,1.5-2.05c0.88-1.12,1.76-2.25,2.65-3.37c0,0,0.1-0.09,0.1-0.09c0.85-1,1.7-2,2.56-3.01
		c2.55-3.13,5.1-6.26,7.65-9.39c1.15-1.36,2.31-2.72,3.46-4.08c0,0,0.03-0.03,0.03-0.03c1.14-1.35,2.29-2.7,3.43-4.05
		c0.12-0.24,0.25-0.47,0.37-0.71c1.47-1.62,2.94-3.24,4.41-4.86c0,0,0.03-0.04,0.03-0.04c1.15-1.33,2.3-2.67,3.45-4
		c0.24-0.26,0.48-0.52,0.72-0.79c0.68-0.87,1.36-1.74,2.04-2.6c0,0,0.12-0.12,0.12-0.12c0.41-0.43,0.82-0.86,1.24-1.3
		c0,0,0.12-0.09,0.12-0.09c0.64-0.68,1.29-1.36,1.93-2.04c0.24-0.24,0.49-0.48,0.73-0.73c1.06-1.23,2.12-2.46,3.19-3.68
		c0,0-0.03,0.03-0.03,0.03c0.45-0.48,0.91-0.95,1.36-1.43L81.03,50c0,0-0.15-0.1-0.15-0.1c0.77-0.83,1.55-1.66,2.32-2.5
		c0,0,0.04-0.05,0.04-0.05c0.63-0.73,1.27-1.47,1.9-2.2c0,0-0.02,0.02-0.02,0.02c0.75-0.83,1.5-1.67,2.25-2.5
		c0,0,0.07-0.09,0.07-0.09c1.1-1.15,2.21-2.3,3.31-3.45c0,0,0.05-0.05,0.05-0.05c0.42-0.48,0.84-0.97,1.26-1.46
		c0,0-0.01,0.01-0.01,0.01c1.55-1.66,3.09-3.32,4.64-4.98c0,0,0.01,0.01,0.01,0.01c0.29-0.26,0.58-0.53,0.87-0.79
		c0.53-0.57,1.05-1.15,1.58-1.72c0.2-0.18,0.39-0.37,0.59-0.55c0,0,0.12-0.11,0.12-0.11c0.65-0.66,1.31-1.32,1.96-1.98
		c0.35-0.29,0.69-0.59,1.04-0.89c0.28-0.27,0.56-0.54,0.83-0.81c0,0-0.03,0.01-0.03,0.01c0.54-0.56,1.07-1.13,1.61-1.69
		c0.51-0.5,1.01-1.01,1.52-1.51c0.79-0.77,1.58-1.54,2.37-2.3c0.5-0.49,1-0.97,1.49-1.46c0.16-0.16,0.33-0.32,0.49-0.49
		c1.9-1.66,3.79-3.31,5.69-4.97c-0.04-0.25,0.06-0.39,0.31-0.43c0.85-0.69,1.69-1.39,2.54-2.08c0,0,0.01-0.01,0.01-0.01
		c5.28-3.63,10.56-7.25,15.84-10.88c2.03,0.01,4.07,0.03,6.1,0.04c1.5,0.82,2.99,1.64,4.49,2.46l0.22-0.02L146.46,2.66z"/>
	<path class="st0" d="M0.6,165.67c1.03-0.53,2.06-1.06,3.08-1.6c22.73,11.9,45.86,23.1,68.1,35.86
		c38.04,21.82,75.53,44.6,113.15,67.14c1.18,0.71,1.23,3.31,1.81,5.03c-0.47-1.03-0.94-2.07-1.41-3.1c-0.8,0.78-1.58,1.59-2.42,2.33
		c-2.23,1.98-4.49,3.92-6.73,5.88c9.56-7.62,2.24-10.97-3.75-14.48c-33.46-19.62-66.73-39.57-100.5-58.63
		c-22.71-12.82-46.16-24.34-69.26-36.49C1.86,167.19,1.28,166.33,0.6,165.67z"/>
	<path class="st1" d="M176.18,277.22c2.25-1.96,4.5-3.9,6.73-5.88c0.84-0.74,1.61-1.55,2.42-2.33c0.47,1.03,0.94,2.07,1.41,3.1
		c-0.3,0.32-0.6,0.64-0.89,0.96c-0.24,0.27-0.47,0.54-0.71,0.81c-0.68,0.66-1.36,1.33-2.04,1.99c-0.23,0.26-0.47,0.52-0.7,0.78
		c-0.89,0.89-1.78,1.79-2.67,2.68c-0.25,0.27-0.51,0.54-0.76,0.81c-0.32,0.38-0.63,0.76-0.95,1.15c-0.18,0.16-0.36,0.31-0.54,0.47
		c-0.3,0.3-0.6,0.61-0.9,0.91c-0.16,0.16-0.33,0.32-0.49,0.48c-0.62,0.56-1.23,1.13-1.85,1.69c-0.77,0.84-1.54,1.68-2.31,2.52
		c-0.12,0.15-0.27,0.22-0.46,0.23c-0.23,0.31-0.47,0.62-0.7,0.93c-0.02,0.19-0.12,0.3-0.3,0.34c-0.19,0.2-0.38,0.4-0.56,0.6
		l-0.09,0.08c-0.6,0.56-1.21,1.12-1.81,1.68c0,0.19-0.09,0.31-0.26,0.37c-0.8,0.77-1.61,1.55-2.41,2.32c0,0-0.03,0-0.03,0
		c-0.23,0.23-0.46,0.46-0.69,0.68c0,0-0.11-0.2-0.11-0.2s0.13,0.18,0.13,0.18c-0.31,0.38-0.62,0.76-0.93,1.14l-0.03,0.04
		c-0.21,0.22-0.42,0.44-0.63,0.66c-0.23,0.25-0.46,0.5-0.69,0.75c-0.38,0.31-0.76,0.62-1.14,0.93l-0.01-0.01
		c-0.26,0.25-0.52,0.5-0.78,0.75c-0.28,0.35-0.55,0.71-0.83,1.06c-0.22,0.22-0.44,0.44-0.66,0.66c0,0-0.06,0.06-0.06,0.06
		c-0.21,0.22-0.42,0.45-0.62,0.67c-0.2,0.25-0.4,0.5-0.6,0.75c-0.25,0.23-0.5,0.46-0.76,0.69c-0.22,0.22-0.44,0.44-0.66,0.66
		c-0.25,0.23-0.49,0.47-0.74,0.7c-0.45,0.45-0.89,0.9-1.34,1.35c-0.24,0.25-0.48,0.49-0.72,0.74c-1.83,1.81-3.67,3.62-5.5,5.43
		c-0.24,0.25-0.48,0.5-0.72,0.75c-0.21,0.22-0.41,0.43-0.61,0.65c-0.68,0.7-1.37,1.41-2.05,2.11l0,0.01c-0.45,0.5-0.91,1-1.36,1.5
		c-0.41,0.43-0.83,0.87-1.24,1.3c-0.49,0.46-0.97,0.92-1.46,1.37c0,0-0.05,0.04-0.05,0.04c-0.91,0.95-1.81,1.9-2.72,2.85
		c-0.42,0.42-0.84,0.84-1.26,1.26c-0.47,0.47-0.94,0.93-1.42,1.4c0,0-0.04,0.06-0.04,0.06c-0.66,0.68-1.32,1.37-1.98,2.05
		c0,0-0.03,0.05-0.03,0.05c-0.78,0.8-1.55,1.6-2.33,2.4c-0.03,0.18-0.14,0.27-0.32,0.29c-1.41,1.44-2.82,2.88-4.23,4.32
		c-0.31,0.33-0.61,0.65-0.92,0.98c-0.22,0.24-0.44,0.47-0.66,0.71l-0.03,0.03c-0.69,0.69-1.38,1.37-2.07,2.06
		c-0.21,0.22-0.43,0.43-0.64,0.65c-0.24,0.26-0.49,0.52-0.73,0.78c-0.22,0.2-0.44,0.39-0.67,0.59c-0.21,0.28-0.43,0.56-0.64,0.85
		c-0.22,0.2-0.44,0.4-0.66,0.61c-0.26,0.24-0.52,0.48-0.78,0.72c-0.02,0.17-0.11,0.24-0.27,0.21c-0.24,0.23-0.47,0.46-0.71,0.69
		c0,0-0.07,0.15-0.07,0.15c-0.54,0.58-1.08,1.16-1.63,1.74c-0.67,0.67-1.33,1.34-2,2c-0.27,0.25-0.54,0.5-0.82,0.75
		c-0.17,0.21-0.34,0.41-0.52,0.62c-1,1.56-1.99,3.11-2.98,4.67c-0.66-0.5-1.31-1-1.97-1.5c0.39-1.35,0.43-2.98,1.24-4
		c2.62-3.31,5.52-6.39,8.32-9.56c0,0,0.01-0.01,0.01-0.01c0.71-0.76,1.42-1.52,2.14-2.28c16.3-16.66,32.6-33.31,48.9-49.97
		c1.31-1.27,2.61-2.54,3.92-3.81c0.21-0.32,0.41-0.64,0.62-0.97c0.3-0.21,0.6-0.41,0.9-0.62c0,0,0.09-0.1,0.09-0.1
		c0.89-0.91,1.77-1.83,2.66-2.74L176.18,277.22z"/>
	<path class="st0" d="M109.32,352.82c0.99-1.56,1.99-3.11,2.98-4.67c0.5,1.49,1.01,2.97,1.52,4.46c-0.49,0.37-0.98,0.74-1.46,1.12
		c0.8,0.44,1.61,0.88,2.41,1.31c0.13,0.07,0.25,0.14,0.38,0.21c-0.07-0.13-0.14-0.25-0.22-0.38c-0.25-0.7-0.49-1.39-0.74-2.09
		c16.63,12.82,33.31,25.58,49.87,38.49c11.41,8.89,22.66,17.99,33.98,27c-2.23,0.93-4.45,1.87-6.68,2.8
		c-0.33-1.52-0.12-3.72-1.06-4.46c-26.05-20.48-52.22-40.8-78.35-61.17C110.99,354.69,110.19,353.7,109.32,352.82z"/>
	<path class="st0" d="M238.02,349.47c8.72,8.85,17.48,17.66,26.16,26.54c10.56,10.81,21.15,21.6,31.45,32.66
		c0.97,1.04,0.69,4.83-0.41,5.91c-4.93,4.81-10.37,9.09-15.62,13.56c-0.14-0.13-0.27-0.27-0.4-0.4c5.53-5.2,11.06-10.4,16.59-15.59
		c0.13,0.02,0.26,0.05,0.39,0.07c-0.08-0.08-0.15-0.16-0.23-0.23c-0.5-0.8-1.01-1.61-1.51-2.41c-0.48,0.77-0.83,1.69-1.48,2.27
		c-0.88,0.79-2,1.32-3.02,1.97c-0.15-2.06,0.51-4.88-0.59-6.07c-8.97-9.73-18.34-19.08-27.44-28.69
		c-7.64-8.05-15.08-16.28-22.61-24.42c0.13-0.15,0.27-0.29,0.4-0.44c-0.21,0.07-0.43,0.13-0.64,0.2c-0.6-0.47-1.2-0.95-1.81-1.42
		C237.5,351.8,237.76,350.64,238.02,349.47z"/>
	<path class="st1" d="M238.02,349.47c-0.26,1.17-0.52,2.33-0.78,3.5c-0.23-0.2-0.45-0.4-0.68-0.6c-0.23-0.27-0.46-0.54-0.68-0.8
		c-1.36-1.38-2.72-2.76-4.07-4.14c-0.24-0.22-0.49-0.44-0.73-0.66c-0.24-0.42-0.48-0.85-0.73-1.27c0-0.35-0.01-0.7-0.01-1.05
		c-0.03-0.24,0.07-0.4,0.29-0.5c0.17-0.2,0.34-0.41,0.52-0.61c0,0,0.09-0.1,0.09-0.1c0.21-0.15,0.42-0.31,0.62-0.46
		c0.13-0.18,0.32-0.28,0.54-0.29c0.26-0.22,0.52-0.43,0.78-0.65l0.01-0.01c0.24-0.18,0.49-0.36,0.73-0.54
		c0.41-0.29,0.81-0.59,1.22-0.88c0.48-0.31,0.95-0.61,1.43-0.92l0.27-0.06c0.38-0.36,0.77-0.71,1.15-1.07
		c17.32-12.66,34.65-25.33,51.97-37.99c0.36-0.36,0.73-0.73,1.09-1.09l0.07-0.06c0.2-0.14,0.41-0.29,0.61-0.43
		c0.14-0.21,0.33-0.32,0.58-0.33c0.26-0.2,0.52-0.4,0.78-0.6l0.04-0.03c0.43-0.27,0.86-0.53,1.3-0.8c0.77-0.64,1.54-1.28,2.3-1.92
		c0.25-0.03,0.41-0.16,0.5-0.39c0.6-0.39,1.2-0.77,1.8-1.16c0.3-0.2,0.6-0.39,0.9-0.59c0,0,0,0,0,0c0.23-0.22,0.47-0.43,0.7-0.65
		c0,0,0.02-0.02,0.02-0.02c0.24-0.17,0.48-0.34,0.71-0.5c0.41-0.31,0.82-0.61,1.22-0.92c0.28-0.2,0.56-0.4,0.83-0.61
		c0.06-0.16,0.17-0.23,0.34-0.2c0.57-0.39,1.15-0.79,1.72-1.18c0.05-0.16,0.15-0.24,0.32-0.23c0.54-0.42,1.09-0.84,1.63-1.26
		l0.02,0.01c0.26-0.21,0.52-0.42,0.79-0.63c0,0,0.11-0.17,0.11-0.17l0.2,0c0.33-0.21,0.66-0.43,0.99-0.64
		c0.61-0.44,1.22-0.87,1.82-1.31c0.38,0.69,0.76,1.38,1.13,2.08c0,0-0.2,0.2-0.2,0.2c-1.61,1.73-3.22,3.45-4.82,5.18
		c-0.33,0.26-0.66,0.53-0.99,0.79c-0.82,0.61-1.63,1.22-2.45,1.83c-0.48,0.33-0.96,0.65-1.45,0.98c-1.57,1.14-3.14,2.29-4.71,3.43
		c0,0-0.05,0.03-0.05,0.03c-0.67,0.45-1.33,0.9-2,1.35c0,0-0.07,0.04-0.07,0.04c-1.81,1.39-3.63,2.77-5.44,4.16
		c-0.28,0.2-0.57,0.41-0.85,0.61c-0.63,0.47-1.26,0.93-1.9,1.4c0,0-0.05,0.04-0.05,0.04c-0.91,0.67-1.82,1.34-2.72,2.01
		c0,0-0.04,0.03-0.04,0.03c-1.28,1-2.57,1.99-3.85,2.99c0,0-0.12-0.17-0.12-0.17s0.1,0.18,0.1,0.18c-1.22,0.81-2.44,1.61-3.66,2.42
		c-0.02,0.21-0.14,0.29-0.35,0.24c-1.72,1.29-3.45,2.59-5.17,3.88c-0.27,0.26-0.55,0.51-0.82,0.77c-0.23-0.01-0.39,0.09-0.48,0.3
		c-0.27,0.13-0.55,0.26-0.82,0.39c-1.81,1.37-3.62,2.74-5.44,4.11c-0.26,0.23-0.53,0.46-0.79,0.69c-2.94,2.09-5.88,4.19-8.82,6.28
		c-0.24,0.21-0.49,0.42-0.73,0.63c-2.89,2.15-5.79,4.31-8.68,6.46c-0.54,0.35-1.09,0.71-1.63,1.06c-0.55,0.46-1.1,0.91-1.64,1.37
		c-1.02,0.76-2.03,1.52-3.05,2.27c0,0,0.03-0.02,0.03-0.02c-0.29,0.15-0.57,0.3-0.86,0.45l-0.06,0.21c0,0-0.22,0.01-0.22,0.01
		c-1.03,0.76-2.06,1.51-3.09,2.27c0.67,0.83,1.35,1.67,2.02,2.5c0,0,0.01,0,0.01,0C237.11,348.55,237.56,349.01,238.02,349.47
		L238.02,349.47z"/>
	<path class="st0" d="M268.18,434.64c-0.89,0.02-1.77,0.03-2.66,0.05c2.23-1.87,4.46-3.73,6.69-5.6c-0.2,1.13-0.39,2.25-0.59,3.38
		c1.05-0.63,2.11-1.25,3.14-1.9c1.48-0.93,2.96-1.88,4.43-2.82c0.13,0.13,0.27,0.27,0.4,0.4c-8.14,6.92-16.28,13.83-24.42,20.75
		c4.43-4.65,8.86-9.3,13.29-13.95c0.57-0.46,1.14-0.91,1.7-1.37c-0.13-0.14-0.38-0.41-0.39-0.4
		C269.24,433.65,268.71,434.15,268.18,434.64z"/>
	<path class="st0" d="M141.69,465.75c-6.29,7.48,2.14,9.96,4.98,14.19c2.37,3.53,5.38,6.63,8.1,9.92
		c-5.85-6.07-11.79-12.06-17.3-18.43C137.14,471.04,140.2,467.71,141.69,465.75z"/>
	<path class="st0" d="M15.09,131.33c-4.57,7.34-9.15,14.68-13.72,22.02C5.94,146.01,10.51,138.67,15.09,131.33z"/>
	<path class="st0" d="M172,572.47c-2.21,2.97-4.67,5.8-6.5,8.98c-0.79,1.38-0.28,3.51-0.36,5.3c-0.38-1.96-1.75-4.57-0.96-5.74
		C166.3,577.85,169.34,575.28,172,572.47z"/>
	<path class="st0" d="M116.91,337.75c-2.79,3.17-5.7,6.26-8.32,9.56c-0.81,1.02-0.85,2.65-1.24,4c-0.12-1.41-0.89-3.42-0.24-4.13
		C110.17,343.84,113.61,340.86,116.91,337.75z"/>
	<path class="st0" d="M135.54,0c-5.28,3.63-10.56,7.25-15.84,10.88C124.98,7.25,130.26,3.63,135.54,0z"/>
	<path class="st0" d="M185.84,556.21c-3.24,3.8-6.48,7.6-9.72,11.4C179.36,563.81,182.6,560.01,185.84,556.21z"/>
	<path class="st0" d="M190.6,421.82c-2.75,2.5-5.49,5-8.24,7.49C185.11,426.81,187.85,424.31,190.6,421.82z"/>
	<path class="st0" d="M181.73,519.37c2.85,3.08,5.7,6.16,8.55,9.25C187.43,525.53,184.58,522.45,181.73,519.37z"/>
	<path class="st0" d="M196.13,544.38c-2.72,3.18-5.44,6.35-8.16,9.53C190.69,550.73,193.41,547.56,196.13,544.38z"/>
	<path class="st0" d="M28.87,112.12c-2.3,3.18-4.6,6.35-6.91,9.53C24.26,118.47,26.56,115.29,28.87,112.12z"/>
	<path class="st0" d="M1.33,153.39c-0.44,4.01-0.89,8.02-1.33,12.04C0.44,161.42,0.89,157.4,1.33,153.39z"/>
	<path class="st0" d="M206.32,575.71c2.53-2.25,5.06-4.51,7.59-6.76C211.38,571.2,208.85,573.45,206.32,575.71z"/>
	<path class="st0" d="M187.96,592.57c2.55-2.26,5.11-4.53,7.66-6.79C193.07,588.04,190.52,590.3,187.96,592.57z"/>
	<path class="st0" d="M245.14,337.97c2.89-2.15,5.79-4.31,8.68-6.46C250.93,333.66,248.03,335.81,245.14,337.97z"/>
	<path class="st0" d="M190.31,528.65c2.17,2.39,4.34,4.78,6.5,7.16C194.65,533.42,192.48,531.04,190.31,528.65z"/>
	<path class="st0" d="M254.55,330.88c2.94-2.09,5.88-4.19,8.82-6.28C260.43,326.69,257.49,328.79,254.55,330.88z"/>
	<path class="st0" d="M158.31,493.91c2.28,2.5,4.56,5.01,6.84,7.51C162.87,498.92,160.59,496.41,158.31,493.91z"/>
	<path class="st0" d="M176.83,434.16c-2.4,2.07-4.79,4.15-7.19,6.22C172.03,438.31,174.43,436.24,176.83,434.16z"/>
	<path class="st0" d="M250.67,535.46c-0.49-2.18-0.99-4.36-1.48-6.54C249.68,531.11,250.17,533.29,250.67,535.46z"/>
	<path class="st0" d="M243.48,458.73c2.06-1.8,4.13-3.6,6.19-5.41C247.61,455.13,245.55,456.93,243.48,458.73z"/>
	<path class="st0" d="M164.46,445.21c-2.04,1.82-4.07,3.63-6.11,5.45C160.38,448.85,162.42,447.03,164.46,445.21z"/>
	<path class="st0" d="M170.89,507.65c1.75,1.84,3.5,3.68,5.25,5.52C174.39,511.33,172.64,509.49,170.89,507.65z"/>
	<path class="st0" d="M176.17,513.2c1.6,1.8,3.21,3.6,4.81,5.4C179.38,516.8,177.77,515,176.17,513.2z"/>
	<path class="st0" d="M169.13,590.38c1.66,1.55,3.32,3.11,4.98,4.66C172.45,593.48,170.79,591.93,169.13,590.38z"/>
	<path class="st0" d="M116.85,13.4c-1.9,1.66-3.79,3.31-5.69,4.97C113.05,16.71,114.95,15.06,116.85,13.4z"/>
	<path class="st0" d="M237.27,547.41c1.77-1.56,3.54-3.12,5.32-4.68C240.82,544.29,239.05,545.85,237.27,547.41z"/>
	<path class="st0" d="M182.33,429.34c-1.83,1.59-3.65,3.19-5.48,4.78C178.68,432.53,180.51,430.94,182.33,429.34z"/>
	<path class="st0" d="M96.71,32.66c-1.55,1.66-3.09,3.32-4.64,4.98C93.61,35.98,95.16,34.32,96.71,32.66z"/>
	<path class="st0" d="M236.64,348.09c-0.67-0.83-1.35-1.67-2.02-2.5c1.03-0.75,2.06-1.51,3.09-2.27
		C237.35,344.91,237,346.5,236.64,348.09z"/>
	<path class="st0" d="M290.33,304.7c1.81-1.39,3.63-2.77,5.44-4.16C293.96,301.93,292.15,303.32,290.33,304.7z"/>
	<path class="st0" d="M249.72,453.29c1.6-1.37,3.19-2.73,4.79-4.1C252.91,450.56,251.31,451.93,249.72,453.29z"/>
	<path class="st0" d="M66,66.65c-1.47,1.62-2.94,3.24-4.41,4.86C63.06,69.89,64.53,68.27,66,66.65z"/>
	<path class="st0" d="M264.16,323.91c1.81-1.37,3.62-2.74,5.44-4.11C267.78,321.17,265.97,322.54,264.16,323.91z"/>
	<path class="st0" d="M169.24,440.97c-1.58,1.4-3.16,2.79-4.74,4.19C166.08,443.76,167.66,442.36,169.24,440.97z"/>
	<path class="st0" d="M217.3,565.96c1.37-1.31,2.74-2.62,4.11-3.92C220.04,563.35,218.67,564.65,217.3,565.96z"/>
	<path class="st0" d="M271.71,318.34c1.72-1.29,3.45-2.59,5.17-3.88C275.16,315.75,273.44,317.05,271.71,318.34z"/>
	<path class="st0" d="M202.38,579.46c1.28-1.22,2.57-2.45,3.85-3.67C204.95,577.01,203.67,578.24,202.38,579.46z"/>
	<path class="st0" d="M239.36,462.17c1.35-1.12,2.71-2.25,4.06-3.37C242.07,459.93,240.72,461.05,239.36,462.17z"/>
	<path class="st0" d="M57.76,76.3c-1.15,1.36-2.31,2.72-3.46,4.08C55.46,79.02,56.61,77.66,57.76,76.3z"/>
	<path class="st0" d="M157.58,451.39c-1.3,1.14-2.6,2.29-3.91,3.44C154.98,453.68,156.28,452.53,157.58,451.39z"/>
	<path class="st0" d="M297.89,299.13c1.57-1.14,3.14-2.29,4.71-3.43C301.02,296.84,299.45,297.98,297.89,299.13z"/>
	<path class="st0" d="M232.59,551.85c1.3-1.2,2.59-2.4,3.89-3.6C235.18,549.45,233.88,550.65,232.59,551.85z"/>
	<path class="st0" d="M165.2,586.81c1.32,1.2,2.64,2.39,3.96,3.59C167.84,589.21,166.52,588.01,165.2,586.81z"/>
	<path class="st0" d="M171.87,281.68c-1.31,1.27-2.61,2.54-3.92,3.81C169.26,284.22,170.57,282.95,171.87,281.68z"/>
	<path class="st0" d="M247.47,527.07c-0.88-1.08-1.76-2.16-2.64-3.24C245.71,524.91,246.59,525.99,247.47,527.07z"/>
	<path class="st0" d="M61.22,72.22c-1.14,1.35-2.29,2.7-3.43,4.05C58.94,74.92,60.08,73.57,61.22,72.22z"/>
	<path class="st0" d="M36.14,102.84c-1.14,1.38-2.28,2.75-3.42,4.13C33.86,105.59,35,104.22,36.14,102.84z"/>
	<path class="st0" d="M225.54,500.21c-1.12-1.36-2.24-2.72-3.35-4.08C223.31,497.49,224.42,498.85,225.54,500.21z"/>
	<path class="st0" d="M79.58,51.26c-1.06,1.23-2.12,2.46-3.19,3.68C77.46,53.72,78.52,52.49,79.58,51.26z"/>
	<path class="st0" d="M277.23,314.22c1.22-0.81,2.44-1.61,3.66-2.42C279.68,312.6,278.46,313.41,277.23,314.22z"/>
	<path class="st0" d="M69.49,62.61c-1.15,1.33-2.3,2.67-3.45,4C67.19,65.28,68.34,63.94,69.49,62.61z"/>
	<path class="st0" d="M146.13,2.5c-1.5-0.82-2.99-1.64-4.49-2.46C143.14,0.86,144.63,1.68,146.13,2.5z"/>
	<path class="st0" d="M235.11,511.93c-0.89-1.1-1.78-2.21-2.67-3.31C233.33,509.72,234.22,510.83,235.11,511.93z"/>
	<path class="st0" d="M280.92,311.79c1.28-1,2.57-1.99,3.85-2.99C283.49,309.8,282.2,310.79,280.92,311.79z"/>
	<path class="st0" d="M90.77,39.13c-1.1,1.15-2.21,2.3-3.31,3.45C88.56,41.42,89.67,40.28,90.77,39.13z"/>
	<path class="st0" d="M199.43,582.33c0.99-0.97,1.99-1.93,2.98-2.9C201.42,580.4,200.42,581.37,199.43,582.33z"/>
	<path class="st0" d="M221.48,562c0.98-0.93,1.97-1.85,2.95-2.78C223.45,560.15,222.46,561.07,221.48,562z"/>
	<path class="st0" d="M44,92.88c-0.88,1.12-1.76,2.25-2.65,3.37C42.24,95.13,43.12,94,44,92.88z"/>
	<path class="st0" d="M247.59,538.21c1.02-0.9,2.03-1.81,3.05-2.71C249.63,536.4,248.61,537.3,247.59,538.21z"/>
	<path class="st0" d="M149.98,458.25c-1.1,0.91-2.19,1.83-3.29,2.74C147.79,460.08,148.89,459.16,149.98,458.25z"/>
	<path class="st0" d="M176.14,277.26c-0.89,0.91-1.77,1.83-2.66,2.74C174.37,279.08,175.26,278.17,176.14,277.26z"/>
	<path class="st0" d="M46.65,89.78c-0.85,1-1.7,2.01-2.56,3.01C44.95,91.78,45.8,90.78,46.65,89.78z"/>
	<path class="st0" d="M20.62,123.19c-0.78,1.12-1.57,2.24-2.35,3.35C19.05,125.43,19.84,124.31,20.62,123.19z"/>
	<path class="st0" d="M220.01,493.34c-0.89-1.12-1.78-2.25-2.68-3.37C218.23,491.09,219.12,492.22,220.01,493.34z"/>
	<path class="st0" d="M165.21,501.48c0.89,0.91,1.79,1.82,2.68,2.74C166.99,503.3,166.1,502.39,165.21,501.48z"/>
	<path class="st0" d="M38.52,99.77c-0.79,1.02-1.58,2.04-2.37,3.06C36.94,101.81,37.73,100.79,38.52,99.77z"/>
	<path class="st0" d="M238.81,342.67c1.02-0.76,2.03-1.52,3.05-2.27C240.84,341.15,239.83,341.91,238.81,342.67z"/>
	<path class="st0" d="M31.51,108.93c-0.86,1.04-1.73,2.09-2.59,3.13C29.78,111.02,30.64,109.97,31.51,108.93z"/>
	<path class="st0" d="M174.74,569.01c-0.75,0.86-1.51,1.72-2.26,2.58C173.23,570.73,173.99,569.87,174.74,569.01z"/>
	<path class="st0" d="M72.25,59.22c-0.68,0.87-1.36,1.73-2.04,2.6C70.89,60.96,71.57,60.09,72.25,59.22z"/>
	<path class="st0" d="M284.81,308.77c0.91-0.67,1.82-1.34,2.72-2.01C286.63,307.43,285.72,308.1,284.81,308.77z"/>
	<path class="st0" d="M119.06,335.46c-0.71,0.76-1.42,1.52-2.14,2.28C117.63,336.98,118.34,336.22,119.06,335.46z"/>
	<path class="st0" d="M230.39,553.98c0.74-0.72,1.49-1.44,2.23-2.15C231.87,552.54,231.13,553.26,230.39,553.98z"/>
	<path class="st0" d="M304.04,294.72c0.82-0.61,1.63-1.22,2.45-1.83C305.67,293.5,304.85,294.11,304.04,294.72z"/>
	<path class="st0" d="M87.39,42.66c-0.75,0.83-1.5,1.67-2.25,2.5C85.88,44.33,86.64,43.5,87.39,42.66z"/>
	<path class="st0" d="M195.65,585.74c0.8-0.78,1.6-1.57,2.4-2.35C197.25,584.18,196.45,584.96,195.65,585.74z"/>
	<path class="st0" d="M239.15,516.75c-0.63-0.85-1.26-1.7-1.89-2.55C237.88,515.05,238.51,515.9,239.15,516.75z"/>
	<path class="st0" d="M83.21,47.39c-0.77,0.83-1.55,1.66-2.32,2.5C81.66,49.06,82.43,48.23,83.21,47.39z"/>
	<path class="st0" d="M222.13,496.05c-0.68-0.88-1.37-1.75-2.05-2.63C220.76,494.3,221.45,495.18,222.13,496.05z"/>
	<path class="st0" d="M109.17,20.32c-0.79,0.77-1.58,1.53-2.37,2.3C107.59,21.85,108.38,21.08,109.17,20.32z"/>
	<path class="st0" d="M229.06,471.18c0.86-0.69,1.73-1.38,2.59-2.07C230.79,469.8,229.93,470.49,229.06,471.18z"/>
	<path class="st0" d="M152.07,456.27c-0.69,0.65-1.37,1.3-2.06,1.95C150.7,457.57,151.39,456.92,152.07,456.27z"/>
	<path class="st0" d="M119.69,10.89c-0.85,0.69-1.69,1.39-2.54,2.08C118,12.28,118.85,11.58,119.69,10.89z"/>
	<path class="st0" d="M17.04,128.27c-0.54,0.8-1.07,1.61-1.61,2.41C15.97,129.88,16.5,129.07,17.04,128.27z"/>
	<path class="st0" d="M85.15,45.14c-0.63,0.73-1.27,1.47-1.9,2.2C83.88,46.61,84.52,45.88,85.15,45.14z"/>
	<path class="st0" d="M215.25,567.74c0.63-0.54,1.26-1.08,1.89-1.62C216.51,566.66,215.88,567.2,215.25,567.74z"/>
	<path class="st0" d="M226.26,557.73c0.66-0.63,1.32-1.26,1.98-1.9C227.58,556.46,226.92,557.1,226.26,557.73z"/>
	<path class="st0" d="M199.67,540.07c-0.49,0.7-0.98,1.41-1.46,2.11C198.7,541.48,199.19,540.78,199.67,540.07z"/>
	<path class="st0" d="M214.44,486.46c-0.08-0.74-0.17-1.48-0.25-2.22C214.28,484.98,214.36,485.72,214.44,486.46z"/>
	<path class="st0" d="M101.83,27.51c-0.65,0.66-1.31,1.32-1.96,1.98C100.52,28.83,101.17,28.17,101.83,27.51z"/>
	<path class="st0" d="M156.32,491.83c0.65,0.68,1.29,1.36,1.94,2.04C157.61,493.19,156.97,492.51,156.32,491.83z"/>
	<path class="st0" d="M75.66,55.67c-0.64,0.68-1.29,1.36-1.93,2.04C74.37,57.03,75.02,56.35,75.66,55.67z"/>
	<path class="st0" d="M184.98,595.4c0.56-0.48,1.11-0.95,1.67-1.43C186.09,594.45,185.54,594.92,184.98,595.4z"/>
	<path class="st0" d="M249.21,528.94c-0.54-0.58-1.07-1.16-1.61-1.74C248.14,527.78,248.68,528.36,249.21,528.94z"/>
	<path class="st0" d="M241.22,519.52c-0.4-0.55-0.8-1.09-1.2-1.64C240.42,518.43,240.82,518.98,241.22,519.52z"/>
	<path class="st0" d="M287.59,306.72c0.63-0.47,1.26-0.93,1.9-1.4C288.85,305.78,288.22,306.25,287.59,306.72z"/>
	<path class="st0" d="M105.28,24.13c-0.54,0.56-1.07,1.13-1.61,1.69C104.21,25.26,104.74,24.7,105.28,24.13z"/>
	<path class="st0" d="M214.61,483.57c0.61-0.47,1.22-0.93,1.84-1.4C215.83,482.64,215.22,483.11,214.61,483.57z"/>
	<path class="st0" d="M295.84,300.51c0.67-0.45,1.33-0.9,2-1.35C297.17,299.61,296.5,300.06,295.84,300.51z"/>
	<path class="st0" d="M110.67,18.85c-0.5,0.49-1,0.97-1.49,1.46C109.67,19.83,110.17,19.34,110.67,18.85z"/>
	<path class="st0" d="M232.36,508.5c-0.41-0.47-0.83-0.93-1.24-1.4C231.54,507.56,231.95,508.03,232.36,508.5z"/>
	<path class="st0" d="M231.1,507.08c-0.42-0.54-0.84-1.09-1.26-1.63C230.26,506,230.68,506.54,231.1,507.08z"/>
	<path class="st0" d="M167.92,504.25c0.44,0.47,0.87,0.95,1.31,1.43C168.79,505.2,168.36,504.72,167.92,504.25z"/>
	<path class="st0" d="M92.08,37.62c-0.42,0.49-0.84,0.97-1.26,1.46C91.24,38.59,91.66,38.11,92.08,37.62z"/>
	<path class="st0" d="M238.02,349.47c-0.46-0.46-0.91-0.91-1.37-1.37C237.11,348.55,237.56,349.01,238.02,349.47z"/>
	<path class="st0" d="M21.93,121.68c-0.41,0.47-0.81,0.93-1.22,1.4C21.12,122.61,21.53,122.15,21.93,121.68z"/>
	<path class="st0" d="M243.51,339.02c0.54-0.35,1.09-0.71,1.63-1.06C244.6,338.32,244.05,338.67,243.51,339.02z"/>
	<path class="st0" d="M32.7,107c-0.34,0.55-0.69,1.1-1.03,1.65C32.02,108.1,32.36,107.55,32.7,107z"/>
	<path class="st0" d="M145.86,461.8c-0.43,0.42-0.86,0.84-1.28,1.27C145,462.64,145.43,462.22,145.86,461.8z"/>
	<path class="st0" d="M196.88,535.88c0.43,0.45,0.86,0.89,1.3,1.34C197.74,536.78,197.31,536.33,196.88,535.88z"/>
	<path class="st0" d="M144.51,463.13c-0.47,0.42-0.93,0.85-1.4,1.27C143.57,463.98,144.04,463.55,144.51,463.13z"/>
	<path class="st0" d="M218.01,480.65c0.43-0.4,0.87-0.8,1.3-1.2C218.88,479.85,218.44,480.25,218.01,480.65z"/>
	<path class="st0" d="M39.86,98.3c-0.42,0.46-0.85,0.93-1.27,1.39C39.01,99.23,39.43,98.76,39.86,98.3z"/>
	<path class="st0" d="M222.83,476.58c0.43-0.42,0.87-0.84,1.3-1.26C223.7,475.74,223.27,476.16,222.83,476.58z"/>
	<path class="st0" d="M143.09,464.41c-0.47,0.44-0.94,0.89-1.41,1.33C142.16,465.3,142.62,464.86,143.09,464.41z"/>
	<path class="st0" d="M176.11,567.62c-0.45,0.46-0.9,0.92-1.35,1.38C175.21,568.54,175.66,568.08,176.11,567.62z"/>
	<path class="st0" d="M226.77,501.63c-0.39-0.45-0.78-0.9-1.17-1.34C225.99,500.73,226.38,501.18,226.77,501.63z"/>
	<path class="st0" d="M80.91,49.86c-0.45,0.48-0.91,0.95-1.36,1.43C80,50.81,80.46,50.34,80.91,49.86z"/>
	<path class="st0" d="M186.63,593.98c0.45-0.48,0.9-0.96,1.36-1.44C187.54,593.02,187.09,593.5,186.63,593.98z"/>
	<path class="st0" d="M198.23,537.27c0.44,0.45,0.88,0.91,1.31,1.36C199.11,538.18,198.67,537.73,198.23,537.27z"/>
	<path class="st0" d="M73.61,57.8c-0.41,0.43-0.82,0.86-1.24,1.3C72.78,58.67,73.19,58.23,73.61,57.8z"/>
	<path class="st0" d="M243.21,521.58c-0.35-0.23-0.7-0.47-1.06-0.7C242.5,521.11,242.85,521.34,243.21,521.58z"/>
	<path class="st0" d="M216.57,489.18c-0.22-0.36-0.44-0.72-0.65-1.09C216.13,488.46,216.35,488.82,216.57,489.18z"/>
	<path class="st0" d="M173.39,280.09c-0.3,0.21-0.6,0.41-0.9,0.62C172.79,280.51,173.09,280.3,173.39,280.09z"/>
	<path class="st0" d="M233.18,467.64c0.2-0.18,0.39-0.37,0.59-0.55C233.57,467.27,233.38,467.45,233.18,467.64z"/>
	<path class="st0" d="M226.99,473.13c0.17-0.18,0.34-0.36,0.51-0.53C227.33,472.77,227.16,472.95,226.99,473.13z"/>
	<path class="st0" d="M222.17,477.19c0.18-0.16,0.36-0.32,0.54-0.48C222.53,476.87,222.35,477.03,222.17,477.19z"/>
	<path class="st0" d="M217.36,481.34c0.14-0.17,0.27-0.33,0.41-0.5C217.63,481.01,217.49,481.18,217.36,481.34z"/>
	<path class="st0" d="M97.59,31.88c-0.29,0.26-0.58,0.53-0.87,0.79C97,32.41,97.3,32.14,97.59,31.88z"/>
	<path class="st0" d="M228.36,503.62c-0.22-0.22-0.44-0.45-0.66-0.67C227.92,503.18,228.14,503.4,228.36,503.62z"/>
	<path class="st0" d="M228.99,504.33c-0.2-0.23-0.4-0.45-0.6-0.68C228.59,503.87,228.79,504.1,228.99,504.33z"/>
	<path class="st0" d="M99.75,29.61c-0.2,0.18-0.39,0.37-0.59,0.55C99.36,29.97,99.55,29.79,99.75,29.61z"/>
	<path class="st0" d="M229.44,504.98c-0.13-0.18-0.27-0.37-0.4-0.55C229.18,504.62,229.31,504.8,229.44,504.98z"/>
	<path class="st0" d="M103.7,25.82c-0.28,0.27-0.55,0.54-0.83,0.81C103.15,26.36,103.42,26.09,103.7,25.82z"/>
	<path class="st0" d="M244.89,540.62c0.2-0.2,0.41-0.39,0.61-0.59C245.29,540.23,245.09,540.43,244.89,540.62z"/>
	<path class="st0" d="M244.19,541.28c0.19-0.19,0.39-0.37,0.58-0.56C244.58,540.9,244.39,541.09,244.19,541.28z"/>
	<path class="st0" d="M243.51,541.93c0.19-0.18,0.37-0.35,0.56-0.53C243.88,541.58,243.69,541.76,243.51,541.93z"/>
	<path class="st0" d="M197.35,543.15c-0.29,0.33-0.59,0.66-0.89,0.98C196.76,543.81,197.05,543.48,197.35,543.15z"/>
	<path class="st0" d="M270.41,319.41c0.09-0.21,0.25-0.31,0.48-0.3C270.73,319.21,270.57,319.31,270.41,319.41z"/>
	<path class="st0" d="M191.29,421.16c-0.2,0.19-0.4,0.39-0.61,0.58C190.89,421.55,191.09,421.35,191.29,421.16z"/>
	<path class="st0" d="M172.49,571.57c-0.15,0.29-0.3,0.59-0.46,0.88C172.19,572.15,172.34,571.86,172.49,571.57z"/>
	<path class="st0" d="M237.98,343.1c0.29-0.15,0.57-0.3,0.86-0.45C238.55,342.8,238.27,342.95,237.98,343.1z"/>
	<path class="st0" d="M245.57,539.95c0.2-0.2,0.39-0.4,0.59-0.6C245.97,539.55,245.77,539.75,245.57,539.95z"/>
	<path class="st2" d="M272.21,429.09c-2.23,1.87-4.46,3.73-6.69,5.6c0,0-0.01,0.03-0.01,0.03c-0.26,0.22-0.51,0.44-0.77,0.66
		c-0.45,0.41-0.9,0.83-1.35,1.24c-0.64,0.54-1.27,1.07-1.91,1.61c0,0-0.03,0.03-0.03,0.03c-3.35,2.88-6.7,5.76-10.05,8.64l-0.2-0.01
		c0,0-0.13,0.15-0.13,0.15c-0.26,0.25-0.53,0.51-0.79,0.76c-0.21,0.2-0.42,0.39-0.62,0.59c-0.8,0.65-1.6,1.29-2.41,1.94
		c-0.16-0.03-0.26,0.04-0.29,0.2c-0.25,0.24-0.49,0.47-0.74,0.71c0,0,0-0.01,0-0.01c-0.98,0.85-1.95,1.69-2.93,2.54
		c0,0-0.04,0.03-0.03,0.03c-0.62,0.51-1.24,1.03-1.86,1.54c0,0-0.01,0-0.01,0c-0.71,0.66-1.41,1.33-2.12,1.99
		c0,0-0.02,0.01-0.02,0.01c-0.78,0.66-1.56,1.31-2.34,1.96c-2.86,1.66-5.72,3.33-8.58,4.99c-0.26,0.18-0.52,0.35-0.78,0.53
		c0,0-0.09,0.01-0.09,0.01c-2.65,0.44-5.31,0.88-7.97,1.32c0.14-2.28-0.27-4.78,0.54-6.79c1.6-3.94,3.89-7.59,5.89-11.37
		c-4.2,1.19-8.39,2.39-12.6,3.56c-2.44,0.68-4.9,1.31-7.34,1.96c0.22-2.73,0.25-5.48,0.69-8.18c0.78-4.81,1.81-9.59,2.74-14.38
		c-4.75,2.38-9.51,4.74-14.25,7.16c-2.74,1.4-5.43,2.9-8.15,4.35c0.41-2.95,0.85-5.9,1.21-8.85c0.09-0.76-0.04-1.56-0.07-2.34
		c0.46-0.98,0.92-1.95,1.38-2.93c0.23-0.32,0.46-0.64,0.7-0.96c0.56-0.52,1.11-1.04,1.67-1.56c0.5-0.44,1-0.88,1.49-1.32
		c0.24-0.03,0.43-0.15,0.56-0.35c0.18-0.14,0.36-0.29,0.55-0.43c0.34-0.35,0.68-0.69,1.02-1.04c0.53-0.49,1.05-0.97,1.58-1.46
		c0.16,0.03,0.27-0.03,0.32-0.19c0.23-0.25,0.46-0.49,0.69-0.74c0.17-0.12,0.21-0.27,0.14-0.46c0-0.38,0-0.76,0-1.14
		c0.05-0.21-0.03-0.36-0.23-0.45c-11.32-9.01-22.57-18.11-33.98-27c-16.56-12.91-33.24-25.66-49.87-38.49
		c-0.08-0.15-0.21-0.21-0.37-0.18c-0.51-1.49-1.01-2.97-1.52-4.46c0.17-0.21,0.34-0.41,0.52-0.62c0.27-0.25,0.54-0.5,0.82-0.74
		c0.67-0.67,1.33-1.34,2-2c0.54-0.58,1.08-1.16,1.63-1.74c0,0,0.07-0.15,0.07-0.16c0.24-0.23,0.47-0.46,0.71-0.69
		c0.17,0.03,0.26-0.04,0.27-0.21c0.26-0.24,0.52-0.48,0.78-0.72c0.22-0.2,0.44-0.4,0.66-0.61c0.21-0.28,0.43-0.56,0.64-0.85
		c0.22-0.2,0.44-0.39,0.67-0.59c0.24-0.26,0.49-0.52,0.73-0.78c0.21-0.22,0.43-0.43,0.64-0.65c0.69-0.69,1.38-1.37,2.07-2.06
		c0,0,0.03-0.03,0.03-0.03c0.22-0.24,0.44-0.47,0.66-0.71c0.31-0.33,0.61-0.65,0.92-0.98c1.41-1.44,2.82-2.88,4.23-4.32
		c0.18-0.02,0.28-0.11,0.32-0.29c0.78-0.8,1.55-1.6,2.33-2.4c0,0,0.03-0.05,0.03-0.05c0.66-0.68,1.32-1.37,1.98-2.05
		c0,0,0.04-0.06,0.04-0.06c0.47-0.47,0.94-0.93,1.42-1.4c0.42-0.42,0.84-0.84,1.26-1.26c0.91-0.95,1.81-1.9,2.72-2.85
		c0,0,0.05-0.04,0.05-0.04c0.49-0.46,0.97-0.92,1.46-1.37c0.41-0.43,0.83-0.87,1.24-1.3c0.45-0.5,0.91-1,1.36-1.5c0,0,0-0.01,0-0.01
		c0.68-0.7,1.37-1.41,2.05-2.11c0.21-0.22,0.41-0.43,0.61-0.65c0.24-0.25,0.48-0.5,0.72-0.75c1.83-1.81,3.67-3.62,5.5-5.43
		c0.24-0.25,0.48-0.49,0.72-0.74c0.45-0.45,0.89-0.9,1.34-1.35c0.25-0.23,0.49-0.47,0.74-0.7c0.22-0.22,0.44-0.44,0.66-0.66
		c0.25-0.23,0.5-0.46,0.76-0.69c0.2-0.25,0.4-0.5,0.6-0.75c0.21-0.22,0.42-0.45,0.62-0.67c0,0,0.06-0.06,0.06-0.06
		c0.22-0.22,0.44-0.44,0.66-0.66c0.28-0.35,0.55-0.71,0.83-1.06c0.26-0.25,0.52-0.5,0.78-0.75c0,0,0.01,0.01,0.01,0.01
		c0.38-0.31,0.76-0.62,1.14-0.93c0.23-0.25,0.46-0.5,0.69-0.75c0.21-0.22,0.42-0.44,0.63-0.66c0,0,0.03-0.04,0.03-0.04
		c0.31-0.38,0.62-0.76,0.93-1.14c0,0-0.13-0.18-0.13-0.18s0.11,0.2,0.11,0.2c0.23-0.23,0.46-0.45,0.69-0.68c0,0,0.03,0,0.03,0
		c0.8-0.77,1.61-1.54,2.41-2.32c0.18-0.06,0.26-0.19,0.26-0.37c0.6-0.56,1.21-1.12,1.81-1.68c0,0,0.09-0.08,0.09-0.08
		c0.19-0.2,0.38-0.4,0.56-0.6c0.18-0.04,0.28-0.16,0.3-0.34c0.23-0.31,0.47-0.62,0.7-0.93c0.19-0.01,0.34-0.08,0.46-0.23
		c0.77-0.84,1.54-1.68,2.31-2.52c0.62-0.56,1.23-1.13,1.85-1.69c0.16-0.16,0.33-0.32,0.49-0.48c0.3-0.3,0.6-0.61,0.9-0.91
		c0.18-0.16,0.36-0.31,0.54-0.47c0.32-0.38,0.63-0.76,0.95-1.15c0.25-0.27,0.51-0.54,0.76-0.81c0.89-0.89,1.78-1.79,2.67-2.68
		c0.23-0.26,0.47-0.52,0.7-0.78c0.68-0.66,1.36-1.33,2.04-1.99c0.24-0.27,0.47-0.54,0.71-0.81c0.3-0.32,0.6-0.64,0.89-0.96
		c-0.58-1.72-0.63-4.32-1.81-5.03c-37.62-22.55-75.11-45.32-113.15-67.14c-22.24-12.76-45.37-23.96-68.1-35.86
		c0,0-0.07,0.01-0.07,0.01c-0.02-1.5-0.04-3-0.06-4.51C19.5,136.64,34,112.51,51.76,91.06c22.66-27.38,47.94-52.58,72.09-78.72
		c0.25-0.23,0.5-0.46,0.74-0.69c0,0,0,0,0,0c0.25-0.21,0.49-0.41,0.74-0.62c0.29-0.23,0.58-0.46,0.87-0.68
		c0.37-0.24,0.74-0.47,1.11-0.71c0.51-0.41,1.02-0.82,1.54-1.24c0,0,0.08-0.03,0.08-0.03c0.52-0.41,1.04-0.81,1.55-1.22
		c0.98-0.62,1.97-1.23,2.95-1.85c0.26-0.21,0.52-0.42,0.78-0.63c0.43-0.21,0.86-0.42,1.3-0.64c0.33-0.2,0.66-0.39,0.99-0.59
		c0.18,0.06,0.3,0,0.38-0.17c0.48-0.2,0.96-0.41,1.44-0.61c0,0-0.02,0.01-0.02,0.01c0.65,0,1.3,0,1.96,0c0,0-0.01-0.01-0.01-0.01
		c0.25,0.11,0.5,0.23,0.74,0.34c0.23,0.1,0.46,0.2,0.68,0.3c0.24,0.15,0.48,0.31,0.71,0.46c0.33,0.13,0.66,0.26,1,0.4
		c0.32,0.23,0.63,0.46,0.95,0.69c0.63,0.4,1.26,0.81,1.89,1.21c13.15,11.95,26.29,23.9,39.44,35.85c0.2,0.23,0.39,0.46,0.59,0.69
		c1.52,1.48,3.03,2.96,4.55,4.43c0,0,0.06,0.09,0.06,0.09c0.51,0.58,1.02,1.17,1.53,1.75l0.04,0.06c0.98,1.05,1.97,2.1,2.95,3.15
		c0.22,0.26,0.43,0.52,0.65,0.77c0.24,0.21,0.48,0.42,0.72,0.64c0.45,0.47,0.9,0.94,1.35,1.4c19.14,21.82,38.72,43.28,57.33,65.55
		c34.62,41.42,68.7,83.28,102.71,125.2c0.69,0.86-2.25,4.66-3.5,7.09c-0.16-0.04-0.27,0.03-0.32,0.18
		c-0.52,0.41-1.04,0.81-1.56,1.22l0.28,0.2l-0.28-0.19c-0.4,0.29-0.8,0.59-1.21,0.88l-0.03,0.01c-0.52,0.35-1.05,0.71-1.57,1.06
		c0,0-0.04,0.08-0.04,0.08c-0.38,0.28-0.76,0.56-1.14,0.84l-0.08,0.02c-3.04,2.3-6.08,4.6-9.11,6.9c-0.38,0.24-0.76,0.48-1.14,0.72
		c-0.67,0.46-1.35,0.92-2.02,1.38l-0.01,0.01c-0.25,0.21-0.49,0.43-0.74,0.64c0,0-0.01-0.01-0.01-0.01
		c-2.52,1.83-5.03,3.65-7.55,5.48c0,0-0.01,0.02-0.01,0.02c-0.28,0.23-0.56,0.45-0.84,0.68c-0.18-0.04-0.32,0.03-0.41,0.2
		c-0.23,0.2-0.47,0.4-0.7,0.6c0,0-0.03,0.03-0.03,0.03c-0.25,0.2-0.5,0.4-0.75,0.59c0,0-0.05,0-0.05,0
		c-2.51,1.83-5.01,3.66-7.52,5.49c0,0-0.01,0.03-0.01,0.03c-0.53,0.43-1.07,0.86-1.6,1.29c-0.4,0.19-0.8,0.38-1.2,0.58
		c-0.25,0.27-0.5,0.53-0.74,0.8l0.02-0.04c-0.4,0.29-0.8,0.57-1.2,0.86l-0.06,0.03c-0.54,0.43-1.08,0.87-1.63,1.3
		c-0.61,0.44-1.22,0.87-1.82,1.31c-0.33,0.21-0.66,0.43-0.99,0.64l-0.2,0c0,0-0.11,0.17-0.11,0.17c-0.26,0.21-0.52,0.42-0.79,0.63
		c0,0-0.02-0.01-0.02-0.01c-0.54,0.42-1.09,0.84-1.63,1.26c-0.17,0-0.27,0.07-0.32,0.23c-0.57,0.39-1.15,0.79-1.72,1.18
		c-0.17-0.02-0.28,0.04-0.34,0.2c-0.28,0.2-0.56,0.4-0.83,0.61c-0.41,0.31-0.82,0.61-1.22,0.92c-0.24,0.17-0.48,0.34-0.71,0.5
		c0,0-0.02,0.02-0.02,0.02c-0.23,0.22-0.47,0.43-0.7,0.65c0,0,0,0,0,0c-0.3,0.2-0.6,0.39-0.9,0.59c-0.6,0.39-1.2,0.77-1.8,1.16
		c-0.17,0.13-0.33,0.26-0.5,0.39c-0.77,0.64-1.54,1.28-2.3,1.92c-0.43,0.27-0.86,0.53-1.3,0.8c0,0-0.04,0.03-0.04,0.03
		c-0.26,0.2-0.52,0.4-0.78,0.6c-0.25,0.01-0.44,0.12-0.58,0.33c-0.2,0.14-0.41,0.29-0.61,0.43c0,0-0.07,0.06-0.07,0.06
		c-0.36,0.36-0.73,0.73-1.09,1.09c-17.32,12.66-34.65,25.33-51.97,37.99c-0.38,0.36-0.77,0.71-1.15,1.07c0,0-0.27,0.06-0.27,0.07
		c-0.48,0.31-0.95,0.61-1.43,0.92c-0.41,0.29-0.81,0.59-1.22,0.88c-0.24,0.18-0.49,0.36-0.73,0.54c0,0-0.01,0.01-0.01,0.01
		c-0.26,0.22-0.52,0.43-0.78,0.65c-0.23,0.01-0.41,0.1-0.54,0.29c-0.21,0.15-0.42,0.31-0.62,0.46c0,0-0.09,0.1-0.09,0.1
		c-0.17,0.2-0.35,0.41-0.52,0.61c-0.22,0.09-0.32,0.26-0.29,0.5c0,0.35,0.01,0.7,0.01,1.05c0.24,0.42,0.48,0.85,0.73,1.27
		c0.24,0.22,0.49,0.44,0.74,0.66c1.36,1.38,2.72,2.76,4.07,4.14c0.23,0.27,0.46,0.54,0.68,0.8c0.23,0.2,0.45,0.4,0.68,0.6
		c0.6,0.48,1.2,0.95,1.81,1.42c0.04,0.12,0.12,0.2,0.24,0.24c7.53,8.15,14.98,16.37,22.62,24.42c9.11,9.6,18.47,18.96,27.44,28.69
		c1.1,1.19,0.44,4.01,0.59,6.07c-0.15-0.04-0.26,0.02-0.32,0.17c-0.26,0.23-0.53,0.47-0.79,0.7l0-0.01
		c-0.24,0.22-0.48,0.44-0.72,0.66l-0.02-0.01c-1.18,1.06-2.37,2.12-3.55,3.17l-0.15,0.1c-0.48,0.41-0.96,0.83-1.44,1.24
		c-0.99,0.81-1.98,1.63-2.98,2.44c-1.86,1.6-3.71,3.19-5.57,4.79c0,0-0.02,0.01-0.02,0.01c-0.49,0.43-0.97,0.86-1.46,1.3l0.03,0
		c-0.24,0.23-0.47,0.47-0.71,0.7L272.21,429.09z"/>
	<path class="st3" d="M188.19,431.31c0.03,0.78,0.16,1.57,0.07,2.34c-0.36,2.96-0.8,5.9-1.21,8.85c2.71-1.45,5.41-2.95,8.15-4.35
		c4.73-2.42,9.5-4.78,14.25-7.16c-0.93,4.79-1.95,9.57-2.74,14.38c-0.44,2.69-0.47,5.45-0.69,8.18c2.45-0.65,4.9-1.28,7.34-1.96
		c4.2-1.17,8.4-2.37,12.6-3.56c-2,3.77-4.29,7.43-5.89,11.37c-0.82,2-0.4,4.51-0.54,6.79c2.66-0.44,5.31-0.88,7.97-1.32
		c-5.49,5.49-11.13,10.86-16.35,16.6c-1.03,1.13-1.36,4.41-0.5,5.53c10.55,13.6,21.55,26.85,31.96,40.56
		c1.37,1.8,1.31,6.92-0.16,8.3c-20.02,18.88-40.27,37.52-60.99,55.62c-1.34,1.17-7.28-2.15-10.45-4.3
		c-1.16-0.79-1.57-5.11-0.54-6.34c10.54-12.62,21.55-24.84,32.08-37.46c1.12-1.34,0.96-5.43-0.25-6.76
		c-18.81-20.79-37.96-41.27-56.74-62.09c-1.02-1.13-0.38-5.52,0.98-6.79c12.37-11.49,25.07-22.63,37.71-33.83
		C185.4,432.85,186.86,432.16,188.19,431.31z"/>
	<path class="st0" d="M251.41,446.91c3.35-2.88,6.7-5.76,10.05-8.64C258.11,441.14,254.76,444.02,251.41,446.91z"/>
	<path class="st0" d="M243.32,453.77c0.98-0.85,1.95-1.69,2.93-2.54C245.27,452.08,244.29,452.93,243.32,453.77z"/>
	<path class="st0" d="M239.3,457.34c0.71-0.66,1.41-1.33,2.12-1.99C240.71,456.02,240,456.68,239.3,457.34z"/>
	<path class="st0" d="M247.27,450.34c0.8-0.65,1.6-1.29,2.41-1.94C248.87,449.05,248.07,449.69,247.27,450.34z"/>
	<path class="st0" d="M236.94,459.32c0.78-0.65,1.56-1.31,2.34-1.96C238.5,458.01,237.72,458.67,236.94,459.32z"/>
	<path class="st0" d="M261.49,438.23c0.64-0.54,1.27-1.07,1.91-1.61C262.76,437.16,262.12,437.7,261.49,438.23z"/>
	<path class="st0" d="M241.42,455.35c0.62-0.51,1.24-1.03,1.86-1.54C242.66,454.32,242.04,454.83,241.42,455.35z"/>
	<path class="st0" d="M193.43,424.53c-0.5,0.44-1,0.88-1.49,1.32C192.44,425.41,192.93,424.97,193.43,424.53z"/>
	<path class="st0" d="M197.13,421.26c-0.53,0.49-1.05,0.97-1.58,1.46C196.08,422.23,196.61,421.74,197.13,421.26z"/>
	<path class="st0" d="M250.3,447.81c0.26-0.25,0.53-0.51,0.79-0.76C250.83,447.3,250.56,447.56,250.3,447.81z"/>
	<path class="st0" d="M246.24,451.25c0.25-0.24,0.49-0.47,0.74-0.71C246.74,450.77,246.49,451.01,246.24,451.25z"/>
	<path class="st3" d="M227.58,464.84c0.26-0.18,0.52-0.35,0.78-0.53C228.1,464.49,227.84,464.66,227.58,464.84z"/>
	<path class="st0" d="M198.28,418.73c0,0.38,0,0.76,0,1.14C198.28,419.49,198.28,419.11,198.28,418.73z"/>
	<path class="st0" d="M198.14,420.33c-0.23,0.25-0.46,0.49-0.69,0.74C197.68,420.82,197.91,420.58,198.14,420.33z"/>
	<path class="st0" d="M194.54,423.76c-0.18,0.14-0.36,0.29-0.55,0.43C194.18,424.04,194.36,423.9,194.54,423.76z"/>
	<path class="st0" d="M190.27,427.42c-0.23,0.32-0.47,0.64-0.7,0.96C189.8,428.06,190.04,427.74,190.27,427.42z"/>
	<path class="st0" d="M264.75,435.38c0.26-0.22,0.51-0.44,0.77-0.66C265.26,434.94,265,435.16,264.75,435.38z"/>
	<path class="st1" d="M326.84,273.11c0.09-0.17,0.22-0.23,0.41-0.2c0.28-0.23,0.56-0.45,0.84-0.68c0,0,0.01-0.02,0.01-0.02
		c2.52-1.83,5.03-3.65,7.55-5.48c0,0,0.01,0.01,0.01,0.01c0.25-0.21,0.49-0.43,0.74-0.65c0,0,0.01-0.01,0.01-0.01
		c0.67-0.46,1.35-0.92,2.02-1.38c0.38-0.24,0.76-0.48,1.14-0.72c1.63-0.45,3.27-0.9,4.91-1.36c-1.57,1.33-3.09,2.73-4.73,3.99
		c-3.96,3.05-7.95,6.07-11.98,9.02c-1.13,0.83-2.47,1.38-3.71,2.06c0.42-1.12,0.84-2.24,1.26-3.36c0,0,0.05,0,0.05,0
		c0.25-0.2,0.5-0.4,0.75-0.59c0,0,0.03-0.03,0.03-0.03C326.37,273.51,326.6,273.31,326.84,273.11z"/>
	<path class="st1" d="M354.3,252.95c0.05-0.16,0.16-0.22,0.32-0.18c2.38-1.08,4.76-2.16,7.15-3.24c0.1,0.08,0.2,0.17,0.29,0.27
		c-4.75,3.87-9.5,7.75-14.29,11.57c-0.45,0.35-1.21,0.31-1.83,0.45c0.21-0.65,0.3-1.38,0.65-1.95c0.61-0.98,1.38-1.87,2.08-2.79
		c0,0,0.08-0.02,0.08-0.02c0.38-0.28,0.76-0.56,1.14-0.84c0,0,0.04-0.08,0.05-0.08c0.52-0.35,1.05-0.71,1.57-1.07
		c0,0,0.03-0.01,0.03-0.01c0.4-0.29,0.8-0.59,1.21-0.88l0.28,0.19c0,0-0.28-0.2-0.27-0.2C353.27,253.76,353.79,253.35,354.3,252.95z
		"/>
	<path class="st1" d="M314.98,281.71c0.4-0.19,0.8-0.38,1.2-0.58c0.54-0.43,1.07-0.86,1.6-1.29c0,0,0.01-0.03,0.01-0.03
		c1.32-0.03,2.64-0.06,3.97-0.1c-2.59,1.87-5.18,3.74-7.78,5.61c-0.33-0.66-0.66-1.33-0.99-1.99c0,0,0.06-0.03,0.06-0.03
		c0.4-0.29,0.8-0.57,1.2-0.86c0,0-0.02,0.04-0.02,0.05C314.49,282.24,314.73,281.97,314.98,281.71z"/>
	<path class="st1" d="M198.08,54.92c-0.45-0.47-0.9-0.94-1.35-1.4c-0.24-0.21-0.48-0.42-0.72-0.64c-0.22-0.26-0.43-0.52-0.65-0.77
		c-0.02-0.66-0.05-1.32-0.07-1.97l0.16-0.13c1.38,1.6,2.76,3.21,4.14,4.81l-0.16,0.16C198.98,54.96,198.53,54.94,198.08,54.92z"/>
	<path class="st1" d="M186.25,42.62c-0.2-0.23-0.39-0.46-0.59-0.69c0.22-0.51,0.45-1.01,0.67-1.52c0.62,0.44,1.23,0.89,1.85,1.33
		C187.54,42.04,186.9,42.33,186.25,42.62z"/>
	<path class="st1" d="M191.28,45.22c0.38,1.25,0.76,2.49,1.14,3.74c0,0-0.04-0.06-0.04-0.06c-0.51-0.58-1.02-1.17-1.53-1.75
		c0,0-0.06-0.09-0.06-0.09c0.13-0.58,0.27-1.17,0.4-1.75L191.28,45.22z"/>
	<path class="st1" d="M361.77,249.52c0.26-0.55,0.53-1.09,0.79-1.64c0.22,0.19,0.64,0.54,0.62,0.56c-0.35,0.47-0.74,0.9-1.13,1.35
		C361.97,249.69,361.88,249.6,361.77,249.52z"/>
	<path class="st1" d="M191.2,45.31c-0.59-0.41-1.18-0.81-1.78-1.22c0.13-0.14,0.26-0.28,0.39-0.42c0.49,0.52,0.98,1.03,1.48,1.55
		C191.28,45.22,191.2,45.31,191.2,45.31z"/>
	<path class="st1" d="M195.3,50.13c-0.16-0.26-0.32-0.51-0.46-0.77c-0.01-0.02,0.15-0.12,0.23-0.19c0.13,0.28,0.26,0.56,0.38,0.83
		C195.45,50,195.3,50.13,195.3,50.13z"/>
	<path class="st1" d="M312.5,286.71c0.06,0.13,0.13,0.26,0.19,0.39c-0.13-0.06-0.26-0.13-0.39-0.19
		C312.3,286.92,312.5,286.71,312.5,286.71z"/>
	<path class="st1" d="M199.6,54.81c0.07,0.12,0.14,0.25,0.21,0.37c-0.12-0.07-0.25-0.14-0.37-0.21
		C199.43,54.98,199.6,54.81,199.6,54.81z"/>
	<path class="st0" d="M3.55,159.58c0.02,1.5,0.04,3.01,0.06,4.51C3.59,162.59,3.57,161.08,3.55,159.58z"/>
	<path class="st0" d="M130.48,7.16c-0.52,0.41-1.04,0.81-1.55,1.22C129.44,7.98,129.96,7.57,130.48,7.16z"/>
	<path class="st0" d="M128.84,8.41c-0.51,0.41-1.02,0.82-1.54,1.24C127.82,9.24,128.33,8.82,128.84,8.41z"/>
	<path class="st0" d="M140.25,2.69c-0.65,0-1.3,0-1.96,0C138.95,2.69,139.6,2.69,140.25,2.69z"/>
	<path class="st0" d="M138.31,2.68c-0.48,0.2-0.96,0.41-1.44,0.61C137.35,3.09,137.83,2.88,138.31,2.68z"/>
	<path class="st0" d="M124.59,11.65c-0.25,0.23-0.5,0.46-0.74,0.69C124.1,12.11,124.35,11.88,124.59,11.65z"/>
	<path class="st0" d="M125.34,11.04c-0.25,0.21-0.49,0.41-0.74,0.62C124.84,11.45,125.09,11.24,125.34,11.04z"/>
	<path class="st0" d="M126.2,10.35c-0.29,0.23-0.58,0.46-0.87,0.68C125.62,10.81,125.91,10.58,126.2,10.35z"/>
	<path class="st0" d="M134.21,4.68c-0.26,0.21-0.52,0.42-0.78,0.63C133.69,5.1,133.95,4.89,134.21,4.68z"/>
	<path class="st0" d="M144.33,4.88c-0.32-0.23-0.63-0.46-0.95-0.69C143.7,4.41,144.01,4.64,144.33,4.88z"/>
	<path class="st0" d="M142.38,3.79c-0.24-0.15-0.48-0.31-0.71-0.46C141.91,3.48,142.15,3.63,142.38,3.79z"/>
	<path class="st0" d="M136.49,3.46c-0.33,0.2-0.66,0.39-0.99,0.59C135.84,3.85,136.17,3.65,136.49,3.46z"/>
	<path class="st0" d="M140.99,3.02c-0.25-0.11-0.5-0.23-0.74-0.34C140.49,2.8,140.74,2.91,140.99,3.02z"/>
	<path class="st0" d="M130.34,329.69c-1.41,1.44-2.82,2.88-4.23,4.32C127.52,332.57,128.93,331.13,130.34,329.69z"/>
	<path class="st0" d="M140.44,319.35c-0.91,0.95-1.81,1.9-2.72,2.85C138.63,321.25,139.53,320.3,140.44,319.35z"/>
	<path class="st0" d="M132.98,327.01c-0.78,0.8-1.55,1.6-2.33,2.4C131.43,328.61,132.21,327.81,132.98,327.01z"/>
	<path class="st0" d="M167.74,291.6c-0.8,0.77-1.61,1.54-2.41,2.32C166.13,293.15,166.94,292.38,167.74,291.6z"/>
	<path class="st0" d="M174.24,284.84c-0.77,0.84-1.54,1.68-2.31,2.52C172.7,286.52,173.47,285.68,174.24,284.84z"/>
	<path class="st0" d="M135,324.91c-0.66,0.68-1.32,1.37-1.98,2.05C133.68,326.28,134.34,325.59,135,324.91z"/>
	<path class="st0" d="M146.6,313.01c-0.68,0.7-1.37,1.41-2.05,2.11C145.23,314.42,145.92,313.72,146.6,313.01z"/>
	<path class="st0" d="M124.51,335.74c-0.69,0.69-1.38,1.37-2.07,2.06C123.13,337.11,123.82,336.42,124.51,335.74z"/>
	<path class="st0" d="M169.81,289.55c-0.6,0.56-1.21,1.12-1.81,1.68C168.6,290.67,169.21,290.11,169.81,289.55z"/>
	<path class="st0" d="M117.26,343.04c-0.54,0.58-1.08,1.16-1.63,1.74C116.17,344.2,116.72,343.62,117.26,343.04z"/>
	<path class="st0" d="M144.54,315.13c-0.45,0.5-0.91,1-1.36,1.5C143.64,316.13,144.09,315.63,144.54,315.13z"/>
	<path class="st0" d="M136.46,323.45c-0.47,0.47-0.94,0.93-1.42,1.4C135.51,324.39,135.99,323.92,136.46,323.45z"/>
	<path class="st0" d="M141.95,317.93c-0.49,0.46-0.98,0.91-1.46,1.37C140.97,318.85,141.46,318.39,141.95,317.93z"/>
	<path class="st0" d="M164.64,294.59c-0.31,0.38-0.62,0.76-0.93,1.14C164.01,295.34,164.33,294.96,164.64,294.59z"/>
	<path class="st0" d="M162.35,297.17c-0.38,0.31-0.76,0.62-1.14,0.93C161.59,297.79,161.97,297.48,162.35,297.17z"/>
	<path class="st0" d="M119.1,341.27c-0.26,0.24-0.52,0.48-0.78,0.72C118.58,341.75,118.84,341.51,119.1,341.27z"/>
	<path class="st0" d="M120.4,339.81c-0.21,0.28-0.43,0.56-0.64,0.85C119.97,340.38,120.19,340.1,120.4,339.81z"/>
	<path class="st0" d="M154.15,305.44c-0.24,0.25-0.48,0.49-0.72,0.74C153.68,305.93,153.91,305.68,154.15,305.44z"/>
	<path class="st0" d="M156.23,303.39c-0.25,0.23-0.49,0.47-0.74,0.7C155.74,303.86,155.98,303.62,156.23,303.39z"/>
	<path class="st0" d="M121.8,338.44c-0.24,0.26-0.49,0.52-0.73,0.78C121.31,338.96,121.55,338.7,121.8,338.44z"/>
	<path class="st0" d="M157.64,302.04c-0.25,0.23-0.51,0.46-0.76,0.69C157.14,302.5,157.39,302.27,157.64,302.04z"/>
	<path class="st0" d="M125.19,334.99c-0.22,0.24-0.44,0.47-0.66,0.71C124.75,335.47,124.97,335.23,125.19,334.99z"/>
	<path class="st0" d="M158.87,300.62c-0.21,0.22-0.42,0.45-0.62,0.67C158.46,301.07,158.66,300.84,158.87,300.62z"/>
	<path class="st0" d="M170.46,288.87c-0.19,0.2-0.38,0.4-0.56,0.6C170.09,289.27,170.28,289.07,170.46,288.87z"/>
	<path class="st0" d="M171.47,287.59c-0.24,0.31-0.47,0.62-0.7,0.93C171,288.22,171.24,287.9,171.47,287.59z"/>
	<path class="st0" d="M159.59,299.9c-0.22,0.22-0.44,0.44-0.66,0.66C159.15,300.34,159.37,300.12,159.59,299.9z"/>
	<path class="st0" d="M176.57,282.67c-0.16,0.16-0.33,0.32-0.49,0.48C176.25,282.99,176.41,282.83,176.57,282.67z"/>
	<path class="st0" d="M178.01,281.29c-0.18,0.16-0.36,0.31-0.54,0.47C177.65,281.6,177.83,281.45,178.01,281.29z"/>
	<path class="st0" d="M179.72,279.33c-0.25,0.27-0.51,0.54-0.76,0.81C179.21,279.87,179.46,279.6,179.72,279.33z"/>
	<path class="st0" d="M183.09,275.87c-0.23,0.26-0.47,0.52-0.7,0.78C182.62,276.39,182.86,276.13,183.09,275.87z"/>
	<path class="st0" d="M185.85,273.07c-0.24,0.27-0.47,0.54-0.71,0.81C185.37,273.61,185.61,273.34,185.85,273.07z"/>
	<path class="st0" d="M161.2,298.08c-0.26,0.25-0.52,0.5-0.78,0.75C160.68,298.58,160.94,298.33,161.2,298.08z"/>
	<path class="st0" d="M163.67,295.76c-0.21,0.22-0.42,0.44-0.63,0.66C163.25,296.2,163.46,295.98,163.67,295.76z"/>
	<path class="st0" d="M113.64,346.78c-0.27,0.25-0.54,0.5-0.82,0.74C113.09,347.28,113.36,347.03,113.64,346.78z"/>
	<path class="st0" d="M165.3,293.92c-0.23,0.23-0.46,0.45-0.69,0.68C164.84,294.37,165.07,294.14,165.3,293.92z"/>
	<path class="st0" d="M147.93,311.61c-0.24,0.25-0.48,0.5-0.72,0.75C147.45,312.11,147.69,311.86,147.93,311.61z"/>
	<path class="st0" d="M118.04,342.2c-0.24,0.23-0.47,0.46-0.71,0.69C117.57,342.65,117.8,342.42,118.04,342.2z"/>
	<path class="st1" d="M113.82,352.61c0.17-0.03,0.29,0.03,0.37,0.18c0.25,0.7,0.49,1.39,0.74,2.09l-0.16,0.17
		c-0.8-0.44-1.61-0.88-2.41-1.32C112.84,353.36,113.33,352.98,113.82,352.61z"/>
	<path class="st1" d="M114.93,354.88c0.07,0.13,0.14,0.25,0.22,0.38c-0.13-0.07-0.25-0.14-0.38-0.21
		C114.77,355.04,114.93,354.88,114.93,354.88z"/>
	<path class="st0" d="M289.63,413.99c0.06-0.15,0.16-0.21,0.32-0.17c1.02-0.64,2.13-1.18,3.02-1.97c0.65-0.58,1-1.5,1.48-2.27
		c0.5,0.8,1.01,1.61,1.51,2.41l-0.16,0.16c-5.53,5.2-11.06,10.4-16.59,15.59c-1.48,0.94-2.95,1.89-4.43,2.82
		c-1.04,0.65-2.1,1.27-3.14,1.9c0.2-1.13,0.39-2.25,0.59-3.38c0,0,0.05-0.01,0.05-0.01c0.24-0.23,0.47-0.47,0.71-0.7
		c0,0-0.03,0-0.03,0c0.49-0.43,0.97-0.87,1.45-1.3c0,0,0.02-0.01,0.02,0c1.86-1.6,3.71-3.19,5.57-4.79
		c0.99-0.81,1.98-1.63,2.98-2.44c0.48-0.41,0.96-0.83,1.44-1.24c0,0,0.15-0.1,0.15-0.1c1.18-1.06,2.37-2.12,3.55-3.18
		c0,0,0.02,0.01,0.02,0.01c0.24-0.22,0.48-0.44,0.72-0.66c0,0,0,0.01,0,0.01C289.1,414.46,289.37,414.22,289.63,413.99z"/>
	<path class="st1" d="M239.05,354.39c0.21-0.07,0.43-0.13,0.64-0.2c-0.13,0.15-0.26,0.29-0.4,0.44
		C239.17,354.6,239.09,354.52,239.05,354.39z"/>
	<path class="st1" d="M295.95,411.99c0.08,0.08,0.15,0.16,0.23,0.23c-0.13-0.02-0.26-0.05-0.39-0.07
		C295.79,412.16,295.95,411.99,295.95,411.99z"/>
	<path class="st0" d="M303.77,290.05c0.57-0.39,1.15-0.79,1.72-1.18C304.92,289.26,304.34,289.66,303.77,290.05z"/>
	<path class="st0" d="M305.81,288.64c0.54-0.42,1.09-0.84,1.63-1.26C306.89,287.8,306.35,288.22,305.81,288.64z"/>
	<path class="st0" d="M236.84,339.42c0.38-0.36,0.77-0.71,1.15-1.07C237.61,338.71,237.22,339.06,236.84,339.42z"/>
	<path class="st0" d="M235.14,340.4c0.48-0.31,0.95-0.61,1.43-0.92C236.09,339.79,235.62,340.1,235.14,340.4z"/>
	<path class="st0" d="M289.96,300.36c0.36-0.36,0.73-0.73,1.09-1.09C290.69,299.63,290.32,300,289.96,300.36z"/>
	<path class="st0" d="M293.13,297.81c0.43-0.27,0.86-0.53,1.3-0.8C293.99,297.28,293.56,297.55,293.13,297.81z"/>
	<path class="st0" d="M233.19,341.83c0.24-0.18,0.49-0.36,0.73-0.54C233.68,341.46,233.44,341.64,233.19,341.83z"/>
	<path class="st0" d="M302.6,290.86c0.28-0.2,0.56-0.4,0.83-0.61C303.15,290.46,302.88,290.66,302.6,290.86z"/>
	<path class="st0" d="M307.45,287.39c0.26-0.21,0.52-0.42,0.79-0.63C307.98,286.97,307.71,287.18,307.45,287.39z"/>
	<path class="st0" d="M308.55,286.59c0.33-0.21,0.66-0.43,0.99-0.64C309.21,286.16,308.88,286.37,308.55,286.59z"/>
	<path class="st0" d="M291.12,299.21c0.2-0.14,0.41-0.29,0.61-0.43C291.53,298.92,291.32,299.07,291.12,299.21z"/>
	<path class="st0" d="M292.31,298.45c0.26-0.2,0.52-0.4,0.78-0.6C292.83,298.05,292.57,298.25,292.31,298.45z"/>
	<path class="st0" d="M299.03,293.55c0.3-0.2,0.6-0.39,0.9-0.59C299.64,293.16,299.33,293.35,299.03,293.55z"/>
	<path class="st0" d="M236.57,352.37c-0.23-0.27-0.46-0.54-0.68-0.8C236.11,351.83,236.34,352.1,236.57,352.37z"/>
	<path class="st0" d="M296.73,295.1c0.17-0.13,0.33-0.26,0.5-0.39C297.14,294.94,296.98,295.07,296.73,295.1z"/>
	<path class="st0" d="M231.81,347.42c-0.25-0.22-0.49-0.44-0.74-0.66C231.32,346.98,231.56,347.2,231.81,347.42z"/>
	<path class="st0" d="M230.35,345.49c0-0.35-0.01-0.7-0.01-1.05C230.34,344.79,230.34,345.14,230.35,345.49z"/>
	<path class="st0" d="M230.63,343.94c0.17-0.2,0.35-0.41,0.52-0.61C230.97,343.53,230.8,343.74,230.63,343.94z"/>
	<path class="st0" d="M299.94,292.95c0.23-0.22,0.47-0.43,0.7-0.65C300.41,292.52,300.17,292.74,299.94,292.95z"/>
	<path class="st0" d="M231.23,343.23c0.21-0.15,0.42-0.31,0.62-0.46C231.65,342.92,231.44,343.08,231.23,343.23z"/>
	<path class="st0" d="M300.66,292.29c0.24-0.17,0.48-0.34,0.71-0.5C301.14,291.95,300.9,292.12,300.66,292.29z"/>
	<path class="st0" d="M232.4,342.48c0.26-0.22,0.52-0.43,0.78-0.65C232.92,342.05,232.66,342.27,232.4,342.48z"/>
	<path class="st1" d="M268.18,434.64c0.53-0.49,1.06-0.99,1.61-1.46c0.01-0.01,0.25,0.26,0.39,0.4c-0.57,0.46-1.14,0.91-1.7,1.37
		C268.38,434.84,268.28,434.74,268.18,434.64z"/>
	<path class="st0" d="M335.64,266.72c-2.52,1.83-5.03,3.65-7.55,5.48C330.61,270.38,333.12,268.55,335.64,266.72z"/>
	<path class="st0" d="M279.98,422.29c-1.86,1.6-3.71,3.19-5.57,4.79C276.27,425.48,278.13,423.88,279.98,422.29z"/>
	<path class="st0" d="M288.1,415.33c-1.18,1.06-2.37,2.12-3.55,3.18C285.73,417.45,286.92,416.39,288.1,415.33z"/>
	<path class="st0" d="M338.42,264.69c-0.67,0.46-1.35,0.92-2.02,1.38C337.07,265.62,337.75,265.16,338.42,264.69z"/>
	<path class="st0" d="M190.86,47.14c0.51,0.58,1.02,1.17,1.53,1.75C191.88,48.31,191.37,47.73,190.86,47.14z"/>
	<path class="st0" d="M284.4,418.61c-0.48,0.41-0.96,0.83-1.44,1.24C283.44,419.43,283.92,419.02,284.4,418.61z"/>
	<path class="st0" d="M274.4,427.08c-0.48,0.43-0.97,0.87-1.45,1.3C273.43,427.95,273.91,427.51,274.4,427.08z"/>
	<path class="st0" d="M317.79,279.84c-0.53,0.43-1.07,0.86-1.6,1.29C316.72,280.7,317.25,280.27,317.79,279.84z"/>
	<path class="st0" d="M354.3,252.95c-0.52,0.41-1.04,0.81-1.56,1.22C353.26,253.76,353.78,253.35,354.3,252.95z"/>
	<path class="st0" d="M351.51,255.06c-0.52,0.36-1.04,0.71-1.57,1.07C350.46,255.77,350.99,255.42,351.51,255.06z"/>
	<path class="st0" d="M314.25,282.46c-0.4,0.29-0.8,0.57-1.2,0.86C313.45,283.03,313.85,282.74,314.25,282.46z"/>
	<path class="st0" d="M352.74,254.17c-0.4,0.29-0.8,0.59-1.21,0.88C351.94,254.76,352.34,254.47,352.74,254.17z"/>
	<path class="st0" d="M349.89,256.21c-0.38,0.28-0.76,0.56-1.14,0.84C349.13,256.77,349.51,256.49,349.89,256.21z"/>
	<path class="st0" d="M314.98,281.71c-0.25,0.27-0.5,0.53-0.74,0.8C314.49,282.24,314.73,281.97,314.98,281.71z"/>
	<path class="st0" d="M326.11,273.73c-0.25,0.2-0.5,0.4-0.75,0.59C325.61,274.13,325.86,273.93,326.11,273.73z"/>
	<path class="st0" d="M326.84,273.11c-0.23,0.2-0.47,0.4-0.7,0.6C326.37,273.51,326.6,273.31,326.84,273.11z"/>
	<path class="st0" d="M328.08,272.23c-0.28,0.23-0.56,0.45-0.84,0.68C327.52,272.68,327.8,272.46,328.08,272.23z"/>
	<path class="st0" d="M336.39,266.09c-0.25,0.22-0.49,0.43-0.74,0.65C335.9,266.52,336.14,266.31,336.39,266.09z"/>
	<path class="st0" d="M196.02,52.88c0.24,0.21,0.48,0.42,0.72,0.64C196.49,53.31,196.26,53.09,196.02,52.88z"/>
	<path class="st0" d="M289.63,413.99c-0.26,0.24-0.52,0.47-0.79,0.7C289.1,414.46,289.37,414.22,289.63,413.99z"/>
	<path class="st0" d="M288.85,414.68c-0.24,0.22-0.48,0.44-0.72,0.66C288.36,415.12,288.6,414.9,288.85,414.68z"/>
	<path class="st0" d="M272.97,428.38c-0.24,0.23-0.47,0.47-0.71,0.7C272.5,428.85,272.73,428.61,272.97,428.38z"/>
</g>
</svg>
