<?xml version="1.0" encoding="utf-8"?>
<!-- Generator: Adobe Illustrator 24.1.0, SVG Export Plug-In . SVG Version: 6.00 Build 0)  -->
<svg version="1.1" id="Layer_1" xmlns="http://www.w3.org/2000/svg" xmlns:xlink="http://www.w3.org/1999/xlink" x="0px" y="0px"
	 viewBox="0 0 709 731" style="enable-background:new 0 0 709 731;" xml:space="preserve">
<style type="text/css">
	.st0{fill:#046879;}
	.st1{fill:#ABDAE0;}
</style>
<g>
	<path class="st0" d="M429.98,554.11c-0.09,2.52-1.13,4.46-3.42,5.67c-3.39,1.8-6.92,3.14-10.66,4.13
		c-20.47,5.45-40.64,11.98-58.53,23.59c-35.22,22.86-61.43,53.23-75.68,93.25c-4.02,11.29-8.6,22.38-11.27,34.11
		c-0.6,2.62-1.91,4.97-3.5,7.13c-1.23,1.67-2.8,3.04-5.03,2.65c-2.37-0.41-3.76-2.12-4.29-4.36c-3.04-12.8-8.14-24.97-12.23-37.41
		c-6.17-18.78-14.75-36.73-27.69-52.18c-12.22-14.59-24.76-28.96-41.57-38.38c-15.34-8.6-30.53-17.51-47.15-23.76
		c-8.69-3.27-17.27-6.87-26.1-9.79c-3.72-1.23-6.63-3.45-6.34-7.88c0.29-4.46,3.42-5.62,7.31-6.77
		c13.87-4.13,28.53-4.98,42.06-10.55c38.52-15.86,65.53-43.19,82.76-80.96c9.92-21.75,17.41-44.25,23.96-67.14
		c0.27-0.96,0.49-1.95,0.85-2.87c1.43-3.69,3.3-7.1,7.72-7.64c4.56-0.57,7.01,2.55,8.98,5.95c4.67,8.03,6.35,17.14,8.89,25.9
		c5.59,19.34,10.35,38.97,19.77,56.96c16.8,32.08,41.28,55.52,75.85,67.84c9.86,3.51,19.11,8.68,29.23,11.53
		c6.73,1.89,13.56,3.41,20.35,5.05C427.43,548.94,429.74,550.49,429.98,554.11z"/>
	<path class="st0" d="M339.1,190.93c0.18,2.13-1.6,3.77-3.65,4.89c-2.46,1.35-5.1,2.52-7.79,3.27
		c-19.42,5.38-38.78,11.07-56.17,21.56c-25.25,15.24-46.94,34.41-62.72,59.64c-13.44,21.49-22.14,45.01-28.8,69.34
		c-0.8,2.92-2.07,5.58-3.77,8.09c-1.33,1.95-3.03,3.26-5.38,2.86c-2.33-0.4-3.39-2.22-4.17-4.46
		c-7.05-20.22-12.31-41.05-21.75-60.45c-11.65-23.95-28.1-44.1-49.2-59.99c-17-12.81-36.11-22.27-55.9-30.36
		c-9.23-3.77-18.42-7.55-27.89-10.63c-3.94-1.28-6.4-3.67-6.1-7.97c0.28-4.15,3.09-5.43,6.88-6.55
		c13.56-4.03,27.92-4.81,41.14-10.14c38.04-15.34,65.2-41.85,82.73-78.93c10.94-23.14,18.69-47.29,25.84-71.72
		c0.97-3.32,2.45-6.42,5.72-7.77c3.81-1.58,7.18-0.35,9.66,3.01c3.22,4.36,5,9.4,6.51,14.5c4.63,15.63,8.71,31.44,13.76,46.94
		c10.36,31.82,28.91,57.89,56.41,77.21c10.42,7.32,22.61,11.18,34.12,16.37c14.02,6.32,28.47,11.14,43.53,14.21
		C335.71,184.56,338.91,185.78,339.1,190.93z"/>
	<path class="st1" d="M366.26,366.45c-0.55-4.04,1.58-6.53,5.68-7.69c9.86-2.8,19.82-5.15,29.97-6.66
		c5.95-0.88,11.69-2.69,16.99-5.45c8.04-4.19,16.2-8.14,24.07-12.69c11.89-6.88,21.01-16.69,30.08-26.61
		c6.03-6.61,11.67-13.66,16.13-21.39c4.62-8,8.27-16.57,12.18-24.96c4.3-9.24,8.11-18.69,11.18-28.41
		c2.69-8.51,5.11-17.1,7.82-25.59c1.5-4.7,3.06-9.42,5.11-13.89c2.16-4.7,9.21-5.93,13.23-2.72c4.18,3.34,6.72,7.92,8.21,12.81
		c4.55,14.93,8.45,30.06,13.05,44.98c3.43,11.12,8.44,21.62,13.23,32.25c6.83,15.15,17.89,26.66,29,38.21
		c10.94,11.38,24.56,18.98,39.21,24.73c11.82,4.64,23.23,10.38,35.45,13.97c6.34,1.86,12.86,3.1,19.23,4.88
		c3.07,0.85,6.58,1.3,7.02,5.81c0.45,4.58-1.13,7.51-5.26,9.64c-8.63,4.45-18.19,6.02-27.32,8.76
		c-15.69,4.71-30.23,11.75-43.91,20.26c-9.61,5.98-18.53,13.4-26.49,21.68c-6.79,7.06-14.1,13.57-19.89,21.64
		c-12.94,18.04-22.74,37.55-29.42,58.71c-2.49,7.88-5.68,15.5-7.25,23.7c-1,5.25-6.42,9.6-10.17,9.59c-2.43-0.01-4.3-0.8-5.08-3.18
		c-3.64-11.17-8.94-21.93-11.59-33.21c-4.71-20.09-13.99-37.76-25.79-54.05c-8.9-12.28-18.76-24.13-31.12-33.32
		c-8.36-6.21-17.68-10.96-26.56-16.37c-14.26-8.69-29.89-14.09-44.87-21.01c-4.01-1.85-8.49-2.67-12.76-3.94
		C369.68,375.12,366.3,371.51,366.26,366.45z M700.61,370.12c0.16-3.96-2.67-5-5.71-5.74c-5.32-1.3-10.67-2.53-16-3.81
		c-11.04-2.67-20.99-8.25-31.63-11.96c-26.63-9.27-47.97-25.59-64.72-48c-15.51-20.76-23.78-44.73-30.31-69.49
		c-2.96-11.22-5.58-22.6-10.64-33.18c-1.73-3.61-3.88-6.66-8.53-6.36c-4.72,0.3-6.29,3.67-7.44,7.53
		c-7.28,24.34-14.71,48.58-25.8,71.6c-13.85,28.75-33.04,52.48-61,68.48c-13.3,7.61-26.87,14.46-42.44,16.56
		c-7.55,1.02-14.91,3.41-22.36,5.15c-2.92,0.68-4.78,2.44-5.1,5.41c-0.31,2.91,0.92,5.19,3.69,6.43c1.36,0.61,2.75,1.17,4.15,1.66
		c5.02,1.75,10.17,3.17,15.05,5.26c17.23,7.36,34.23,15.18,50.59,24.42c15.87,8.97,29.17,20.67,40.99,34.4
		c9.37,10.88,17.69,22.36,24.04,35.27c9.21,18.71,14.39,38.88,21.46,58.37c0.99,2.72,0.36,7.01,4.74,7.3
		c4.27,0.28,4.9-3.86,6.66-6.51c0.45-0.67,0.74-1.5,0.92-2.29c3.09-13.66,8.21-26.64,13.4-39.59c9.53-23.74,22.86-44.89,41.54-62.65
		c17.54-16.68,36.8-30.71,59.43-39.43c10.34-3.98,20.9-7.64,31.76-10.13c3.77-0.86,7.3-2.21,10.6-4.22
		C699.72,373.54,700.57,372.1,700.61,370.12z"/>
	<path class="st0" d="M700.62,370.12c-0.05,1.98-0.9,3.42-2.65,4.48c-3.31,2.01-6.83,3.36-10.6,4.22
		c-10.87,2.49-21.43,6.15-31.76,10.13c-22.64,8.72-41.9,22.75-59.43,39.43c-18.68,17.76-32.01,38.91-41.54,62.65
		c-5.19,12.95-10.32,25.92-13.4,39.59c-0.18,0.8-0.47,1.62-0.92,2.29c-1.75,2.66-2.38,6.8-6.66,6.51c-4.38-0.29-3.76-4.58-4.74-7.3
		c-7.06-19.49-12.25-39.66-21.46-58.37c-6.35-12.9-14.68-24.39-24.04-35.27c-11.82-13.72-25.12-25.43-40.99-34.4
		c-16.36-9.24-33.36-17.06-50.59-24.42c-4.87-2.08-10.03-3.5-15.05-5.26c-1.41-0.49-2.79-1.05-4.15-1.66
		c-2.76-1.25-4-3.52-3.69-6.43c0.32-2.97,2.18-4.73,5.1-5.41c7.45-1.74,14.81-4.14,22.36-5.15c15.57-2.1,29.14-8.96,42.44-16.56
		c27.96-15.99,47.16-39.72,61-68.48c11.09-23.02,18.52-47.26,25.8-71.6c1.16-3.87,2.72-7.23,7.44-7.53c4.65-0.3,6.8,2.75,8.53,6.36
		c5.06,10.57,7.68,21.96,10.64,33.18c6.53,24.77,14.8,48.74,30.31,69.49c16.75,22.41,38.08,38.73,64.72,48
		c10.64,3.7,20.58,9.29,31.63,11.96c5.33,1.29,10.67,2.51,16,3.81C697.94,365.13,700.77,366.16,700.62,370.12z"/>
</g>
</svg>
