<?xml version="1.0" encoding="utf-8"?>
<!-- Generator: Adobe Illustrator 24.1.0, SVG Export Plug-In . SVG Version: 6.00 Build 0)  -->
<svg version="1.1" id="Layer_1" xmlns="http://www.w3.org/2000/svg" xmlns:xlink="http://www.w3.org/1999/xlink" x="0px" y="0px"
	 viewBox="0 0 256 256" style="enable-background:new 0 0 256 256;" xml:space="preserve">
<style type="text/css">
	.st0{fill:#FFFFFF;}
</style>
<g transform="translate(1.4065934065934016 1.4065934065934016) scale(2.81 2.81)">
	<path class="st0" d="M47.76,3.76l11.52,23.35c0.45,0.91,1.31,1.53,2.31,1.68l25.77,3.74c2.52,0.37,3.53,3.46,1.7,5.24L70.42,55.96
		c-0.72,0.71-1.06,1.72-0.88,2.72l4.4,25.67c0.43,2.51-2.2,4.42-4.46,3.24L46.43,75.47c-0.9-0.47-1.97-0.47-2.86,0L20.52,87.59
		c-2.25,1.18-4.89-0.73-4.46-3.24l4.4-25.67c0.17-1-0.16-2.01-0.88-2.72L0.93,37.78c-1.82-1.78-0.82-4.88,1.7-5.24l25.77-3.74
		c1-0.15,1.87-0.77,2.31-1.68L42.24,3.76C43.37,1.48,46.63,1.48,47.76,3.76z"/>
</g>
</svg>
